<svg xmlns="http://www.w3.org/2000/svg" width="66" height="66" viewBox="0 0 66 66">
  <g id="expenses" transform="translate(-1 -1)">
    <path id="Path_430" data-name="Path 430" d="M29.258,41H27.129v2.129H25v6.387h4.258v2.129H25v2.129h2.129V55.9h2.129V53.774h2.129V47.387H27.129V45.258h4.258V43.129H29.258Z" transform="translate(1.548 2.581)" fill="#0f4c75"/>
    <path id="Path_431" data-name="Path 431" d="M53.968,60.419V37H5V60.419ZM48.8,58.29a4.251,4.251,0,0,1,3.042-3.042V58.29Zm3.042-16.119A4.251,4.251,0,0,1,48.8,39.129h3.042Zm-5.227-3.042a6.4,6.4,0,0,0,5.227,5.227v8.709a6.4,6.4,0,0,0-5.227,5.227H36.195a11.682,11.682,0,0,0,0-19.162ZM29.484,58.29a9.581,9.581,0,1,1,9.581-9.581A9.591,9.591,0,0,1,29.484,58.29ZM10.171,39.129a4.249,4.249,0,0,1-3.042,3.042V39.129ZM7.129,55.248a4.249,4.249,0,0,1,3.042,3.042H7.129Zm5.227,3.042a6.4,6.4,0,0,0-5.227-5.227V44.356a6.4,6.4,0,0,0,5.227-5.227H22.773a11.681,11.681,0,0,0,0,19.161Z" transform="translate(0.258 2.323)" fill="#0f4c75"/>
    <path id="Path_432" data-name="Path 432" d="M64.871,1H26.548a2.131,2.131,0,0,0-2.129,2.129V30.806H15.9V24.419H11.645a4.262,4.262,0,0,0-4.258,4.258v6.387H1V67H58.484V62.742h4.258V39.323h2.129A2.131,2.131,0,0,0,67,37.194V3.129A2.131,2.131,0,0,0,64.871,1ZM42.516,3.129H48.9V8.011L47.839,6.946,45.71,9.075,43.581,6.946,42.516,8.011Zm-15.968,0H40.387V13.15l3.194-3.194,2.129,2.129,2.129-2.129,3.194,3.194V3.129H64.871v14.9H47.839V30.806H26.548Zm-14.9,23.419h2.129v4.258H11.645a2.129,2.129,0,1,1,0-4.258Zm44.71,38.323H3.129V37.194H56.355Zm4.258-4.258H58.484V35.065H9.516V32.344a4.214,4.214,0,0,0,2.129.592H60.613Zm2.129-23.419V30.806H49.968V20.161h14.9V37.194Z" fill="#0f4c75"/>
    <path id="Path_433" data-name="Path 433" d="M49,25H59.645v2.129H49Z" transform="translate(3.097 1.548)" fill="#0f4c75"/>
    <path id="Path_434" data-name="Path 434" d="M49,21h2.129v2.129H49Z" transform="translate(3.097 1.29)" fill="#0f4c75"/>
    <path id="Path_435" data-name="Path 435" d="M53,21h6.387v2.129H53Z" transform="translate(3.355 1.29)" fill="#0f4c75"/>
  </g>
</svg>
