<svg xmlns="http://www.w3.org/2000/svg" width="89" height="90.508" viewBox="0 0 89 90.508">
  <g id="Fill_out_line" data-name="Fill out line" transform="translate(-16 -16)">
    <path id="Path_357" data-name="Path 357" d="M146.373,40.593V24H129.78v6.034h6.034l-18.1,18.1L102.627,33.051,80,55.678,84.525,60.2l18.1-18.1,15.085,15.085,22.627-22.627v6.034Z" transform="translate(-51.932 -6.491)" fill="#bbe1fa"/>
    <path id="Path_358" data-name="Path 358" d="M160,208h6.034v24.136H160Z" transform="translate(-116.847 -155.797)" fill="#4db7e5"/>
    <path id="Path_359" data-name="Path 359" d="M240,232h6.034v7.542H240Z" transform="translate(-181.763 -175.271)" fill="#4db7e5"/>
    <path id="Path_360" data-name="Path 360" d="M320,208h6.034v12.068H320Z" transform="translate(-246.678 -155.797)" fill="#4db7e5"/>
    <path id="Path_361" data-name="Path 361" d="M400,144h6.034v24.136H400Z" transform="translate(-311.593 -103.864)" fill="#4db7e5"/>
    <path id="Path_362" data-name="Path 362" d="M86.034,248H80v22.627l6.034-6.034Z" transform="translate(-51.932 -188.254)" fill="#4db7e5"/>
    <path id="Path_363" data-name="Path 363" d="M40,424H55.085v6.034H40Z" transform="translate(-19.475 -331.068)" fill="#3282b8"/>
    <path id="Path_364" data-name="Path 364" d="M104,456h15.085v6.034H104Z" transform="translate(-71.407 -357.034)" fill="#3282b8"/>
    <path id="Path_365" data-name="Path 365" d="M104,392h15.085v6.034H104Z" transform="translate(-71.407 -305.102)" fill="#3282b8"/>
    <path id="Path_366" data-name="Path 366" d="M200,424h15.085v6.034H200Z" transform="translate(-149.305 -331.068)" fill="#3282b8"/>
    <g id="Group_54" data-name="Group 54" transform="translate(17.508 80.864)">
      <path id="Path_367" data-name="Path 367" d="M184,456h15.085v6.034H184Z" transform="translate(-153.831 -437.898)" fill="#3282b8"/>
      <path id="Path_368" data-name="Path 368" d="M184,392h15.085v6.034H184Z" transform="translate(-153.831 -385.966)" fill="#3282b8"/>
      <path id="Path_369" data-name="Path 369" d="M120,424h15.085v6.034H120Z" transform="translate(-101.898 -411.932)" fill="#3282b8"/>
      <path id="Path_370" data-name="Path 370" d="M120,360h15.085v6.034H120Z" transform="translate(-101.898 -360)" fill="#3282b8"/>
      <path id="Path_371" data-name="Path 371" d="M24,456H39.085v6.034H24Z" transform="translate(-24 -437.898)" fill="#3282b8"/>
      <path id="Path_372" data-name="Path 372" d="M24,392H39.085v6.034H24Z" transform="translate(-24 -385.966)" fill="#3282b8"/>
    </g>
    <path id="Path_373" data-name="Path 373" d="M272,424h34.695v12.068H272Z" transform="translate(-207.729 -331.068)" fill="#3282b8"/>
    <path id="Path_374" data-name="Path 374" d="M302.653,424A25.673,25.673,0,0,1,281.9,434.559H272v1.508h34.695V424Z" transform="translate(-207.729 -331.068)" fill="#3282b8"/>
    <path id="Path_375" data-name="Path 375" d="M344,424h6.034v12.068H344Z" transform="translate(-267.661 -332.576)" fill="#bbe1fa"/>
    <path id="Path_376" data-name="Path 376" d="M304,360h34.695v12.068H304Z" transform="translate(-233.695 -279.135)" fill="#3282b8"/>
    <path id="Path_377" data-name="Path 377" d="M334.653,360A25.673,25.673,0,0,1,313.9,370.559H304v1.508h34.695V360Z" transform="translate(-233.695 -279.135)" fill="#3282b8"/>
    <path id="Path_378" data-name="Path 378" d="M376,360h6.034v12.068H376Z" transform="translate(-292.119 -279.135)" fill="#bbe1fa"/>
    <path id="Path_379" data-name="Path 379" d="M272,296h34.695v12.068H272Z" transform="translate(-207.729 -227.203)" fill="#3282b8"/>
    <path id="Path_380" data-name="Path 380" d="M302.653,296A25.673,25.673,0,0,1,281.9,306.559H272v1.508h34.695V296Z" transform="translate(-207.729 -225.695)" fill="#3282b8"/>
    <path id="Path_381" data-name="Path 381" d="M344,296h6.034v12.068H344Z" transform="translate(-266.153 -227.203)" fill="#bbe1fa"/>
    <path id="Path_382" data-name="Path 382" d="M240,392h4.525v6.034H240Z" transform="translate(-181.763 -305.102)" fill="#bbe1fa"/>
    <path id="Path_383" data-name="Path 383" d="M256,424h4.525v6.034H256Z" transform="translate(-194.746 -331.068)" fill="#bbe1fa"/>
    <path id="Path_384" data-name="Path 384" d="M240,456h4.525v6.034H240Z" transform="translate(-181.763 -357.034)" fill="#bbe1fa"/>
    <path id="Path_385" data-name="Path 385" d="M160,456h4.525v6.034H160Z" transform="translate(-116.847 -357.034)" fill="#bbe1fa"/>
    <path id="Path_386" data-name="Path 386" d="M176,424h4.525v6.034H176Z" transform="translate(-129.076 -332.576)" fill="#bbe1fa"/>
    <path id="Path_387" data-name="Path 387" d="M160,392h4.525v6.034H160Z" transform="translate(-116.847 -305.102)" fill="#bbe1fa"/>
    <path id="Path_388" data-name="Path 388" d="M80,456h4.525v6.034H80Z" transform="translate(-51.932 -357.034)" fill="#bbe1fa"/>
    <path id="Path_389" data-name="Path 389" d="M96,424h4.525v6.034H96Z" transform="translate(-64.915 -331.068)" fill="#bbe1fa"/>
    <path id="Path_390" data-name="Path 390" d="M80,392h4.525v6.034H80Z" transform="translate(-50.424 -305.102)" fill="#3282b8"/>
    <path id="Path_391" data-name="Path 391" d="M176,360h4.525v6.034H176Z" transform="translate(-129.831 -279.135)" fill="#bbe1fa"/>
    <path id="Path_392" data-name="Path 392" d="M103.492,300.068H98.966V289.508A1.508,1.508,0,0,0,97.458,288H62.763a1.508,1.508,0,0,0-1.508,1.508v12.068a1.508,1.508,0,0,0,1.508,1.508h4.525v9.051H64.271V307.61a1.508,1.508,0,0,0-1.508-1.508H52.2v-4.525a1.508,1.508,0,0,0-1.508-1.508H35.61a1.508,1.508,0,0,0-1.508,1.508V306.1H17.508A1.508,1.508,0,0,0,16,307.61v6.034a1.508,1.508,0,0,0,1.508,1.508h1.508v3.017H17.508A1.508,1.508,0,0,0,16,319.678v6.034a1.508,1.508,0,0,0,1.508,1.508H97.458a1.508,1.508,0,0,0,1.508-1.508V315.153h4.525A1.508,1.508,0,0,0,105,313.644V301.576a1.508,1.508,0,0,0-1.508-1.508Zm-7.542,0H83.881v-9.051H95.949ZM83.881,312.136v-9.051H86.9v9.051ZM52.2,318.169v-3.017H64.271v3.017Zm-3.017-3.017v3.017H37.119v-3.017ZM34.1,312.136v-3.017H46.169v3.017Zm0,3.017v3.017H22.034v-3.017Zm12.068,6.034V324.2H34.1v-3.017Zm3.017,0H61.254V324.2H49.186Zm15.085,0H65.78a1.508,1.508,0,0,0,1.508-1.508v-4.525h7.542V324.2H64.271Zm13.576-6.034h3.017V324.2H77.847Zm0-15.085v-9.051h3.017v9.051Zm-13.576-9.051H74.831v9.051H64.271Zm6.034,12.068H80.864v9.051H70.305Zm-9.051,9.051H49.186v-3.017H61.254Zm-24.136-9.051H49.186V306.1H37.119Zm-18.1,6.034H31.085v3.017H19.017Zm0,12.068H31.085V324.2H19.017ZM95.949,324.2H83.881v-9.051H95.949Zm6.034-12.068H89.915v-9.051h12.068Z" transform="translate(0 -220.712)" fill="#1b262c"/>
    <path id="Path_393" data-name="Path 393" d="M81.051,258.1V241.508A1.508,1.508,0,0,0,79.542,240H73.508A1.508,1.508,0,0,0,72,241.508v22.627h3.017V243.017h3.017V258.1Z" transform="translate(-45.441 -181.763)"/>
    <path id="Path_394" data-name="Path 394" d="M161.051,225.644V201.508A1.508,1.508,0,0,0,159.542,200h-6.034A1.508,1.508,0,0,0,152,201.508v24.136h3.017V203.017h3.017v22.627Z" transform="translate(-110.356 -149.305)"/>
    <path id="Path_395" data-name="Path 395" d="M241.051,233.051v-7.542A1.508,1.508,0,0,0,239.542,224h-6.034A1.508,1.508,0,0,0,232,225.508v7.542h3.017v-6.034h3.017v6.034Z" transform="translate(-175.271 -168.78)"/>
    <path id="Path_396" data-name="Path 396" d="M321.051,213.576V201.508A1.508,1.508,0,0,0,319.542,200h-6.034A1.508,1.508,0,0,0,312,201.508v12.068h3.017V203.017h3.017v10.559Z" transform="translate(-240.186 -149.305)"/>
    <path id="Path_397" data-name="Path 397" d="M401.051,161.644V137.508A1.508,1.508,0,0,0,399.542,136h-6.034A1.509,1.509,0,0,0,392,137.508v24.136h3.017V139.017h3.017v22.627Z" transform="translate(-305.102 -97.373)"/>
    <path id="Path_398" data-name="Path 398" d="M76.967,54.779a1.509,1.509,0,0,0,2.133,0L96.136,37.744l14.018,14.018a1.509,1.509,0,0,0,2.133,0L132.339,31.71V34.1a1.508,1.508,0,0,0,1.508,1.508h6.034A1.508,1.508,0,0,0,141.39,34.1V17.509A1.508,1.508,0,0,0,139.882,16H123.288a1.508,1.508,0,0,0-1.508,1.508v6.034a1.508,1.508,0,0,0,1.508,1.508h2.392l-14.46,14.46L97.2,25.493a1.509,1.509,0,0,0-2.133,0L72.442,48.12a1.508,1.508,0,0,0,0,2.133ZM96.136,28.693l14.018,14.018a1.509,1.509,0,0,0,2.133,0l18.1-18.1a1.509,1.509,0,0,0-1.067-2.575H124.8V19.017h13.576V32.593h-3.017V28.068A1.508,1.508,0,0,0,132.781,27l-21.56,21.56L97.2,34.544a1.509,1.509,0,0,0-2.133,0L78.034,51.579l-2.392-2.392Z" transform="translate(-45.441)" fill="#0f4c75"/>
  </g>
</svg>
