<svg xmlns="http://www.w3.org/2000/svg" width="172.611" height="179.424" viewBox="0 0 172.611 179.424">
  <g id="Group_109" data-name="Group 109" transform="translate(-818 -942)">
    <path id="Path_161" data-name="Path 161" d="M0,0H172.611L159.274,135.031,66.628,179.424,0,113.8Z" transform="translate(818 942)" fill="rgba(187,225,250,0.26)"/>
    <g id="diagram" transform="translate(839.997 950.001)">
      <g id="Group_18" data-name="Group 18" transform="translate(10.17 11.861)">
        <g id="Group_17" data-name="Group 17" transform="translate(0 0)">
          <rect id="Rectangle_1144" data-name="Rectangle 1144" width="26" height="4" transform="translate(-0.167 0.139)" fill="#0f4c75"/>
        </g>
      </g>
      <g id="Group_20" data-name="Group 20" transform="translate(10.17 20.333)">
        <g id="Group_19" data-name="Group 19" transform="translate(0 0)">
          <rect id="Rectangle_1145" data-name="Rectangle 1145" width="26" height="5" transform="translate(-0.167 -0.334)" fill="#0f4c75"/>
        </g>
      </g>
      <g id="Group_22" data-name="Group 22" transform="translate(10.17 27.958)">
        <g id="Group_21" data-name="Group 21" transform="translate(0 0)">
          <rect id="Rectangle_1146" data-name="Rectangle 1146" width="18" height="4" transform="translate(-0.167 0.041)" fill="#0f4c75"/>
        </g>
      </g>
      <g id="Group_24" data-name="Group 24" transform="translate(10.17 36.431)">
        <g id="Group_23" data-name="Group 23" transform="translate(0 0)">
          <rect id="Rectangle_1147" data-name="Rectangle 1147" width="18" height="4" transform="translate(-0.167 -0.431)" fill="#0f4c75"/>
        </g>
      </g>
      <g id="Group_26" data-name="Group 26" transform="translate(0.003 116.071)">
        <g id="Group_25" data-name="Group 25" transform="translate(0 0)">
          <rect id="Rectangle_1148" data-name="Rectangle 1148" width="120" height="4" transform="translate(0 -0.072)" fill="#0f4c75"/>
        </g>
      </g>
      <g id="Group_28" data-name="Group 28" transform="translate(7.839 -0.001)">
        <g id="Group_27" data-name="Group 27">
          <path id="Path_150" data-name="Path 150" d="M139.361,17.119,131.355,1.108a2,2,0,0,0-2.684-.9h0L112.658,8.217a2,2,0,1,0,1.789,3.583l11.6-5.794-3.164,9.035A106.807,106.807,0,0,1,31.323,86.063l.34,4a110.811,110.811,0,0,0,95-73.705l3.23-9.231,5.888,11.779a2,2,0,1,0,3.583-1.789Z" transform="translate(-31.323 0.001)" fill="#0f4c75"/>
        </g>
      </g>
      <g id="Group_30" data-name="Group 30" transform="translate(8.009 96.071)">
        <g id="Group_29" data-name="Group 29">
          <path id="Path_151" data-name="Path 151" d="M48.015,384.006H34a2,2,0,0,0-2,2v12.009a2,2,0,0,0,2,2h14.01a2,2,0,0,0,2-2V386.007A2,2,0,0,0,48.015,384.006Zm-2,12.009H36.006v-8.006H46.013Z" transform="translate(-32.003 -384.006)" fill="#0f4c75"/>
        </g>
      </g>
      <g id="Group_32" data-name="Group 32" transform="translate(30.025 90.066)">
        <g id="Group_31" data-name="Group 31">
          <path id="Path_152" data-name="Path 152" d="M136.015,360.006H122a2,2,0,0,0-2,2V380.02a2,2,0,0,0,2,2h14.01a2,2,0,0,0,2-2V362.007A2,2,0,0,0,136.015,360.006Zm-2,18.013H124.006v-14.01h10.007Z" transform="translate(-120.003 -360.006)" fill="#0f4c75"/>
        </g>
      </g>
      <g id="Group_34" data-name="Group 34" transform="translate(52.041 80.059)">
        <g id="Group_33" data-name="Group 33">
          <path id="Path_153" data-name="Path 153" d="M224.015,320.006H210a2,2,0,0,0-2,2v28.02a2,2,0,0,0,2,2h14.01a2,2,0,0,0,2-2v-28.02A2,2,0,0,0,224.015,320.006Zm-2,28.02H212.006V324.009h10.007Z" transform="translate(-208.003 -320.006)" fill="#0f4c75"/>
        </g>
      </g>
      <g id="Group_36" data-name="Group 36" transform="translate(74.056 66.049)">
        <g id="Group_35" data-name="Group 35">
          <path id="Path_154" data-name="Path 154" d="M312.015,264.006H298a2,2,0,0,0-2,2v42.03a2,2,0,0,0,2,2h14.01a2,2,0,0,0,2-2v-42.03A2,2,0,0,0,312.015,264.006Zm-2,42.03H300.006V268.009h10.007Z" transform="translate(-296.003 -264.006)" fill="#0f4c75"/>
        </g>
      </g>
      <g id="Group_38" data-name="Group 38" transform="translate(96.072 38.029)">
        <g id="Group_37" data-name="Group 37">
          <path id="Path_155" data-name="Path 155" d="M400.015,152.006H386a2,2,0,0,0-2,2v70.051a2,2,0,0,0,2,2h14.01a2,2,0,0,0,2-2V154.007A2,2,0,0,0,400.015,152.006Zm-2,70.051H388.006V156.009h10.007Z" transform="translate(-384.003 -152.006)" fill="#0f4c75"/>
        </g>
      </g>
    </g>
  </g>
</svg>
