<svg xmlns="http://www.w3.org/2000/svg" xmlns:xlink="http://www.w3.org/1999/xlink" width="1315.5" height="939.475" viewBox="0 0 1315.5 939.475">
  <defs>
    <linearGradient id="linear-gradient" x1="0.572" y1="0.089" x2="0.259" y2="0.792" gradientUnits="objectBoundingBox">
      <stop offset="0" stop-color="#0f4c75"/>
      <stop offset="1" stop-color="#08263b"/>
    </linearGradient>
    <filter id="Path_142" x="0" y="0" width="1289.349" height="939.475" filterUnits="userSpaceOnUse">
      <feOffset dy="3" input="SourceAlpha"/>
      <feGaussianBlur stdDeviation="25" result="blur"/>
      <feFlood flood-color="#1b262c" flood-opacity="0.161"/>
      <feComposite operator="in" in2="blur"/>
      <feComposite in="SourceGraphic"/>
    </filter>
    <linearGradient id="linear-gradient-2" x1="0.5" x2="0.5" y2="1" gradientUnits="objectBoundingBox">
      <stop offset="0" stop-color="#0f4c75"/>
      <stop offset="1" stop-color="#08263b" stop-opacity="0.71"/>
    </linearGradient>
    <linearGradient id="linear-gradient-3" x1="0.5" x2="0.5" y2="1" gradientUnits="objectBoundingBox">
      <stop offset="0" stop-color="#3282b8"/>
      <stop offset="1" stop-color="#08263b" stop-opacity="0.71"/>
    </linearGradient>
  </defs>
  <g id="Group_105" data-name="Group 105" transform="translate(-861.5 91.475)">
    <g transform="matrix(1, 0, 0, 1, 861.5, -91.48)" filter="url(#Path_142)">
      <path id="Path_142-2" data-name="Path 142" d="M561.458-197.32c61.354,0,279.69-38.3,272.762,52.956C826.329-40.435,954.086,419.575,954.086,487.818,954.086,615.855,422.873,576,291.493,576S-104.73,473.65-104.73,345.614c0-42.956-49.256-176.748-76.581-311.508-14.481-71.417,14.355-206.029,29.967-220.652C-108.674-226.514,497.476-197.32,561.458-197.32Z" transform="translate(260.26 279.61)" fill="url(#linear-gradient)"/>
    </g>
    <path id="Path_145" data-name="Path 145" d="M553.014-197.124c60.661,0,276.528-39.025,269.677,53.963-7.8,105.9,118.51,574.653,118.51,644.193C941.2,631.5,416,590.888,286.1,590.888S-105.641,486.594-105.641,356.125c0-43.773-48.7-180.106-75.715-317.427-14.318-72.774,14.193-209.944,29.628-224.844C-109.54-226.873,489.756-197.124,553.014-197.124Z" transform="translate(1177.798 173.133)" fill="url(#linear-gradient-2)"/>
    <path id="Path_439" data-name="Path 439" d="M553.014-197.124c60.661,0,276.528-39.025,269.677,53.963-7.8,105.9,118.51,574.653,118.51,644.193C941.2,631.5,416,590.888,286.1,590.888S-105.641,486.594-105.641,356.125c0-43.773-48.7-180.106-75.715-317.427-14.318-72.774,14.193-209.944,29.628-224.844C-109.54-226.873,489.756-197.124,553.014-197.124Z" transform="translate(1235.798 168.133)" fill="url(#linear-gradient-3)"/>
    <g id="Going_up-cuate" data-name="Going up-cuate" transform="translate(1234.04 212.955)">
      <g id="freepik--background-complete--inject-2">
        <path id="Path_5" data-name="Path 5" d="M85.21,289.88l-13.13.28-6.66.11c-2.22.05-4.46,0-6.69.05h-.45v-.45l-.05-11.19v-.5h.5l13.24.06c4.41,0,8.82.11,13.24.17h.27v.27c0,1.9-.09,3.79-.13,5.65Zm0,0-.14-5.65c0-1.87-.12-3.71-.14-5.54l.28.27c-4.42.05-8.83.16-13.24.17l-13.24.06.5-.5-.06,11.19-.44-.45c2.18,0,4.35,0,6.54.06l6.58.11Z" fill="#ebebeb"/>
        <path id="Path_6" data-name="Path 6" d="M70.44,304l-13.13.28-6.66.11c-2.23.05-4.46,0-6.69.05h-.45V292.31H44l13.24.06c4.41,0,8.82.11,13.24.17h.27v.27c0,1.9-.09,3.79-.13,5.65Zm0,0-.15-5.66c0-1.86-.11-3.7-.13-5.53l.28.27c-4.42.05-8.83.16-13.24.17L44,293.3l.49-.5L44.4,304l-.44-.45c2.18,0,4.35,0,6.54.06l6.58.11Z" fill="#ebebeb"/>
        <path id="Path_7" data-name="Path 7" d="M100,304l-13.13.28-6.66.11c-2.22.05-4.46,0-6.69.05h-.44V292.31h.5l13.24.06c4.41,0,8.83.11,13.24.17h.27v.27c0,1.9-.08,3.79-.13,5.65Zm0,0-.14-5.66c0-1.86-.12-3.7-.13-5.53l.27.27c-4.41.05-8.83.16-13.24.17l-13.24.06.5-.5L73.94,304l-.44-.45c2.18,0,4.36,0,6.54.06l6.58.11Z" fill="#ebebeb"/>
        <path id="Path_8" data-name="Path 8" d="M441.27,304l-13.12.28-6.66.11c-2.23.05-4.47,0-6.7.05h-.44V304l-.06-11.19v-.5h.5l13.24.06c4.42,0,8.83.11,13.24.17h.28v.27c0,1.9-.09,3.79-.13,5.65Zm0,0-.14-5.66c0-1.86-.11-3.7-.13-5.53l.27.27c-4.41.05-8.82.16-13.24.17l-13.24.06.5-.5L415.24,304l-.45-.45c2.18,0,4.36,0,6.55.06l6.58.11Z" fill="#ebebeb"/>
        <path id="Path_9" data-name="Path 9" d="M441.27,85.77,428.15,86l-6.66.12h-7.14v-.44l-.06-11.19v-.51h.5l13.24.06c4.42,0,8.83.11,13.24.16h.28v.27c0,1.89-.09,3.78-.13,5.65Zm0,0-.14-5.66c0-1.86-.11-3.7-.13-5.53l.27.27c-4.41.05-8.82.16-13.24.16l-13.24.06.5-.49-.05,11.19-.45-.45c2.18,0,4.36,0,6.55.05l6.58.12Z" fill="#ebebeb"/>
        <path id="Path_10" data-name="Path 10" d="M456,99.88l-13.12.27-6.66.12h-7.14v-.44l-.06-11.19v-.51h.5l13.24.06c4.42,0,8.83.11,13.24.16h.28v.27c0,1.89-.09,3.78-.13,5.65Zm0,0-.14-5.66c0-1.86-.11-3.7-.13-5.53L456,89c-4.41.05-8.82.16-13.24.16l-13.24.06.5-.49L430,99.88l-.45-.45h6.55l6.58.12Z" fill="#ebebeb"/>
        <path id="Path_11" data-name="Path 11" d="M70.44,85.78l-13.13.28-6.66.11H43.51V74.03H44l13.24.06c4.41,0,8.82.11,13.24.16h.27v.27c0,1.9-.09,3.78-.13,5.65Zm0,0-.15-5.66c0-1.86-.11-3.7-.13-5.53l.28.27c-4.42,0-8.83.16-13.24.16L44,75.09l.49-.5L44.4,85.78l-.4-.45c2.18,0,4.35,0,6.54.06l6.58.11Z" fill="#ebebeb"/>
        <path id="Path_12" data-name="Path 12" d="M213.79,160.83l13.12-.28,6.66-.11c2.23-.05,4.47,0,6.7-.05h.44v.45l.06,11.19v.5h-.5L227,172.46c-4.42,0-8.83-.11-13.24-.16h-.28V172c0-1.9.09-3.78.13-5.65Zm0,0,.14,5.66c0,1.86.11,3.7.13,5.53l-.27-.27c4.41-.05,8.82-.16,13.24-.16l13.24-.07-.5.5V160.83l.45.45c-2.18,0-4.36,0-6.55-.06l-6.58-.11Z" fill="#ebebeb"/>
        <path id="Path_13" data-name="Path 13" d="M228.56,146.72l13.12-.28,6.66-.11c2.23-.05,4.47,0,6.7-.05h.44v.45l.06,11.19v.5H255l-13.24-.06c-4.41,0-8.83-.11-13.24-.16h-.28v-.27c0-1.9.08-3.78.13-5.65Zm0,0,.14,5.66c.05,1.86.11,3.7.13,5.53l-.27-.27c4.41,0,8.83-.16,13.24-.16l13.24-.07-.5.5.05-11.19.45.45c-2.18,0-4.36,0-6.55-.06l-6.58-.11Z" fill="#ebebeb"/>
        <rect id="Rectangle_1104" data-name="Rectangle 1104" width="1" height="86.85" transform="translate(217.12)" fill="#c7c7c7"/>
        <path id="Path_14" data-name="Path 14" d="M247.78,115.92l-2.42,5.33H189.88l-2.41-5.33,23.61-16.34h13.08Z" fill="#3282b8"/>
        <path id="Path_15" data-name="Path 15" d="M225.8,83.83l-1.64,15.75H211.08l-1.64-15.75Z" fill="#dbdbdb"/>
        <path id="Path_16" data-name="Path 16" d="M247.78,115.92l-2.43,5.34H189.88l-2.42-5.34Z" fill="#dbdbdb"/>
        <rect id="Rectangle_1105" data-name="Rectangle 1105" width="1" height="69.65" transform="translate(281.88)" fill="#c7c7c7"/>
        <path id="Path_17" data-name="Path 17" d="M312.54,98.72l-2.43,5.33H254.64l-2.42-5.33,23.62-16.35h13.08Z" fill="#3282b8"/>
        <path id="Path_18" data-name="Path 18" d="M290.56,66.62l-1.64,15.75H275.84L274.2,66.62Z" fill="#dbdbdb"/>
        <path id="Path_19" data-name="Path 19" d="M312.54,98.72l-2.43,5.33H254.64l-2.42-5.33Z" fill="#dbdbdb"/>
        <path id="Path_143" data-name="Path 143" d="M0,0H78.42V108.53H0Z" transform="translate(353.96 329.32)" fill="#092a41"/>
        <rect id="Rectangle_1107" data-name="Rectangle 1107" width="86.02" height="4.03" transform="translate(350.16 325.3)" fill="#0c3c5c"/>
        <rect id="Rectangle_1108" data-name="Rectangle 1108" width="27.05" height="4.03" transform="translate(436.18 325.3)" fill="#ebebeb"/>
        <rect id="Rectangle_1109" data-name="Rectangle 1109" width="26.57" height="108.53" transform="translate(432.38 329.32)" fill="#092940"/>
        <path id="Path_20" data-name="Path 20" d="M424,379.58H362.37V344.75H424Zm-61.34-.25h61.09V345H362.62Z" fill="#c7c7c7"/>
        <rect id="Rectangle_1110" data-name="Rectangle 1110" width="11.98" height="6.89" transform="translate(384.58 354.94)" fill="#c7c7c7"/>
        <path id="Path_21" data-name="Path 21" d="M400.22,361.43H388v-6.1h12.22Zm-12-.25H400v-5.6H388.25Z" fill="#c7c7c7"/>
        <path id="Path_22" data-name="Path 22" d="M424,423.27H362.37V388.44H424ZM362.62,423h61.09V388.69H362.62Z" fill="#c7c7c7"/>
        <rect id="Rectangle_1111" data-name="Rectangle 1111" width="11.98" height="6.89" transform="translate(384.58 398.63)" fill="#c7c7c7"/>
        <path id="Path_23" data-name="Path 23" d="M400.22,405.12H388V399h12.22Zm-12-.25H400v-5.59H388.25Z" fill="#c7c7c7"/>
      </g>
      <g id="freepik--Shadow--inject-2">
        <ellipse id="Ellipse_7" data-name="Ellipse 7" cx="181.49" cy="8.42" rx="181.49" ry="8.42" transform="translate(68.51 445.25)" fill="#0d4165"/>
      </g>
      <g id="freepik--Arrows--inject-2">
        <rect id="Rectangle_1112" data-name="Rectangle 1112" width="17.45" height="68.09" transform="translate(250.78 338.11)" fill="#bbe1fa"/>
        <rect id="Rectangle_1113" data-name="Rectangle 1113" width="17.45" height="11.21" transform="translate(250.78 409.56)" fill="#bbe1fa"/>
        <rect id="Rectangle_1114" data-name="Rectangle 1114" width="17.45" height="6.91" transform="translate(250.78 424.14)" fill="#bbe1fa"/>
        <rect id="Rectangle_1115" data-name="Rectangle 1115" width="17.45" height="3.43" transform="translate(250.78 434.42)" fill="#bbe1fa"/>
        <path id="Path_24" data-name="Path 24" d="M274.05,338.11H244.96l14.54-20.13Z" fill="#bbe1fa"/>
        <rect id="Rectangle_1116" data-name="Rectangle 1116" width="17.45" height="89.73" transform="translate(285.52 316.47)" fill="#bbe1fa"/>
        <rect id="Rectangle_1117" data-name="Rectangle 1117" width="17.45" height="11.21" transform="translate(285.52 409.56)" fill="#bbe1fa"/>
        <rect id="Rectangle_1118" data-name="Rectangle 1118" width="17.45" height="6.91" transform="translate(285.52 424.14)" fill="#bbe1fa"/>
        <rect id="Rectangle_1119" data-name="Rectangle 1119" width="17.45" height="3.43" transform="translate(285.52 434.42)" fill="#bbe1fa"/>
        <path id="Path_25" data-name="Path 25" d="M308.79,316.46H279.7l14.54-20.12Z" fill="#bbe1fa"/>
        <rect id="Rectangle_1120" data-name="Rectangle 1120" width="17.45" height="111.37" transform="translate(320.26 294.83)" fill="#bbe1fa"/>
        <rect id="Rectangle_1121" data-name="Rectangle 1121" width="17.45" height="11.21" transform="translate(320.26 409.56)" fill="#bbe1fa"/>
        <rect id="Rectangle_1122" data-name="Rectangle 1122" width="17.45" height="6.91" transform="translate(320.26 424.14)" fill="#bbe1fa"/>
        <rect id="Rectangle_1123" data-name="Rectangle 1123" width="17.45" height="3.43" transform="translate(320.26 434.42)" fill="#bbe1fa"/>
        <path id="Path_26" data-name="Path 26" d="M343.52,294.82H314.44l14.54-20.12Z" fill="#bbe1fa"/>
        <rect id="Rectangle_1124" data-name="Rectangle 1124" width="17.45" height="133.01" transform="translate(354.99 273.19)" fill="#bbe1fa"/>
        <rect id="Rectangle_1125" data-name="Rectangle 1125" width="17.45" height="11.21" transform="translate(354.99 409.56)" fill="#bbe1fa"/>
        <rect id="Rectangle_1126" data-name="Rectangle 1126" width="17.45" height="6.91" transform="translate(354.99 424.14)" fill="#bbe1fa"/>
        <rect id="Rectangle_1127" data-name="Rectangle 1127" width="17.45" height="3.43" transform="translate(354.99 434.42)" fill="#bbe1fa"/>
        <path id="Path_27" data-name="Path 27" d="M378.26,273.19H349.18l14.54-20.13Z" fill="#bbe1fa"/>
      </g>
      <g id="freepik--Plant--inject-2">
        <path id="Path_28" data-name="Path 28" d="M391,332.76c3.07-3,7-6.63,11.72-5.34,4.41,1.22,6.1,6,6.89,10,1,5.17,1.8,10.39,2.63,15.6s1.6,10.51,2.36,15.78q.64,4.46,1.26,8.92c.21,1.48.42,3,.62,4.46s.45,2.91.53,4.38a.41.41,0,0,1-.81.09c-.57-2.48-.81-5.06-1.17-7.57s-.73-5.06-1.1-7.59q-1.11-7.54-2.26-15.08c-.75-5-1.54-10.05-2.34-15.07-.68-4.25-1-9.54-4.77-12.35a7.29,7.29,0,0,0-7.06-.66,21.13,21.13,0,0,0-6.41,4.48.06.06,0,1,1-.09-.05Z" fill="#263238"/>
        <path id="Path_29" data-name="Path 29" d="M395.22,329.69s6.27-2.26,9.36,2.32-.61,16.21-29.14,22.77A80.728,80.728,0,0,1,382.3,329C388.42,315.64,399.32,320.7,395.22,329.69Z" fill="#bbe1fa"/>
        <path id="Path_30" data-name="Path 30" d="M377.08,352.87a23.954,23.954,0,0,1,1.43-2.31c.48-.74,1-1.47,1.45-2.2.37-.54.74-1.09,1.12-1.63a1,1,0,0,0-.06-.41l-.09-.74c-.07-.53-.15-1.07-.23-1.6s-.17-1.06-.27-1.59a8.521,8.521,0,0,0-.37-1.68.06.06,0,0,1,.12,0,5.931,5.931,0,0,0,.26.94c.06.24.13.48.19.73q.21.81.39,1.62c.11.51.21,1,.29,1.52.05.24.08.49.11.73.51-.72,1-1.44,1.57-2.15,1.51-2,3.11-3.91,4.77-5.79h0a52.207,52.207,0,0,0-.74-8.92c0-.08.1-.12.12,0a30.75,30.75,0,0,1,1.06,8.53l1.81-2c1.39-1.49,2.8-3,4.25-4.4a.064.064,0,1,1,.09.09c-2.4,2.58-4.68,5.28-6.91,8a50.5,50.5,0,0,1,5.22.2c1.93.14,3.86.39,5.78.65.08,0,.05.14,0,.13a53.079,53.079,0,0,0-5.77-.52c-1.86-.07-3.71,0-5.57,0q-1.8,2.24-3.56,4.51h1.57c.87,0,1.74.07,2.6.15a40.585,40.585,0,0,1,5.27.78.07.07,0,0,1,0,.13c-1.76-.2-3.51-.36-5.28-.42h-3.83a1.691,1.691,0,0,1-.72-.07l-2.3,3c-.6.8-1.2,1.6-1.79,2.41s-1.14,1.73-1.81,2.51C377.13,353,377.05,352.94,377.08,352.87Z" fill="#263238"/>
        <path id="Path_31" data-name="Path 31" d="M392.49,336.17a19.418,19.418,0,0,1,3.05-.15c1,0,2,0,3.06.07a.065.065,0,0,1,0,.13c-1-.08-2.07-.1-3.1-.08s-2,.11-3,.08C392.46,336.22,392.46,336.18,392.49,336.17Z" fill="#263238"/>
        <path id="Path_32" data-name="Path 32" d="M383.53,338.47a28.185,28.185,0,0,0-.44-2.91c0-.09.11-.12.12,0,.15,1,.33,1.91.48,2.87.07.48.13,1,.19,1.45a6.883,6.883,0,0,1,.12,1.36.09.09,0,0,1-.17,0,8.71,8.71,0,0,1-.15-1.36Q383.62,339.16,383.53,338.47Z" fill="#263238"/>
        <path id="Path_33" data-name="Path 33" d="M385.41,327.67c.25.95.5,1.91.67,2.88.09.49.17,1,.23,1.47a5.82,5.82,0,0,1,.1,1.44h-.08a8,8,0,0,1-.22-1.37c-.07-.48-.14-1-.22-1.42-.17-1-.35-2-.6-3C385.27,327.64,385.39,327.59,385.41,327.67Z" fill="#263238"/>
        <path id="Path_34" data-name="Path 34" d="M422.57,385.55c.15-1.8.33-3.59.52-5.39.37-3.55.81-7.1,1.28-10.64s.93-7.07,1.5-10.59a26.38,26.38,0,0,1,1.09-4.81,4.55,4.55,0,0,1,2.66-3c3.36-1.15,5.63,2.33,7,4.79,0,.07-.07.13-.11.06-.81-1.16-3.06-4.44-5.6-4.29-1.72.11-3.09,1.32-3.91,5.59-2.05,10.65-3.9,32.26-4.11,33.67-.12.75-.65.72-.65-.09A49.433,49.433,0,0,1,422.57,385.55Z" fill="#263238"/>
        <path id="Path_35" data-name="Path 35" d="M435.7,354.58s-2.94-10.37,3.55-5.19c10.8,8.63,11.18,27.39,11.18,27.39s-19.2-11.15-21.58-18.5C425.29,347.32,435.7,354.58,435.7,354.58Z" fill="#bbe1fa"/>
        <path id="Path_36" data-name="Path 36" d="M432.06,359.66c1.51.31,3,.51,4.56.73l2.16.3c.48.07,1,.11,1.47.17-1.43-2-2.88-3.93-4.25-5.94-.05-.08.07-.16.13-.09a43.647,43.647,0,0,1,3.21,3.7c.28-.8.57-1.6.85-2.41a27.718,27.718,0,0,0,.91-2.8c0-.08.15-.05.13,0-.27.95-.45,1.92-.7,2.88s-.53,1.82-.86,2.72c.71.91,1.38,1.85,2,2.79.33-.94.74-1.84,1-2.79,0-.08.15,0,.12,0-.34,1.06-.53,2.15-.85,3.21.44.64.88,1.28,1.3,1.93.78,1.2,1.51,2.42,2.22,3.65a.29.29,0,0,1,.17.29c1.21,2.1,2.37,4.23,3.5,6.37,0,.08-.07.14-.11.07-1.14-2.12-2.41-4.19-3.72-6.22h0a2.43,2.43,0,0,0-.63-.12l-.66-.15c-.5-.1-1-.23-1.48-.35-1-.25-1.94-.48-2.93-.65-.08,0,0-.13,0-.12,1.16.22,2.33.35,3.5.49.56.06,1.11.13,1.66.22h.08c-.69-1-1.39-2.09-2.1-3.11s-1.41-2-2.13-3c-.67-.1-1.33-.27-2-.4l-2.23-.43c-1.48-.29-3-.63-4.46-.87C431.94,359.77,432,359.65,432.06,359.66Z" fill="#263238"/>
        <path id="Path_37" data-name="Path 37" d="M443.6,360.68c.09-.27.17-.55.26-.82a17,17,0,0,0,.44-1.74c0-.08.14,0,.12,0-.12.58-.26,1.17-.4,1.75a10.255,10.255,0,0,1-.5,1.72.114.114,0,0,1-.22-.06C443.38,361.27,443.5,361,443.6,360.68Z" fill="#263238"/>
        <path id="Path_38" data-name="Path 38" d="M430.1,357.26c.87.13,1.76.2,2.64.27s1.76.2,2.64.34c0,0,.05.08,0,.07-.88-.06-1.76-.13-2.64-.24s-1.75-.25-2.63-.31C430,357.39,430,357.25,430.1,357.26Z" fill="#263238"/>
        <path id="Path_39" data-name="Path 39" d="M408.44,372.43c.34-7.63.83-15.25,1.59-22.84.38-3.79.81-7.57,1.34-11.34a81.438,81.438,0,0,1,2.19-11,21.22,21.22,0,0,1,3.65-7.74,8.31,8.31,0,0,1,7.38-3.22c3.34.42,6,2.52,8.35,4.81,2.61,2.56,5,5.36,7.41,8.1.62.69,1.22,1.39,1.82,2.1a.06.06,0,1,1-.09.08c-2.36-2.71-4.82-5.35-7.38-7.87-2.38-2.33-4.82-4.87-8.11-5.84a8.391,8.391,0,0,0-4.71-.11,7.46,7.46,0,0,0-3.22,2A16.829,16.829,0,0,0,415,326.7c-2,7-2.78,14.36-3.55,21.6s-1.29,14.74-1.66,22.13-.66,14.86-1.38,22.26c-.09.92-.21,1.83-.32,2.74-.08.61-1,.61-1,0C407.75,387.75,408.1,380.1,408.44,372.43Z" fill="#263238"/>
        <path id="Path_40" data-name="Path 40" d="M433.36,322s-4.36-8.06.79-10.65,22.38,16.65,27.41,44.77c0,0-27.83-12.31-37.27-24.58S425.55,316.53,433.36,322Z" fill="#bbe1fa"/>
        <path id="Path_41" data-name="Path 41" d="M429.27,328.52c3.13,0,6.25-.24,9.37-.22l-1.76-2a28.567,28.567,0,0,1-2.44-2.84c-.05-.06.05-.16.11-.11a22.191,22.191,0,0,1,2.37,2.38c.78.83,1.56,1.66,2.33,2.5,1.2,1.3,2.37,2.61,3.54,3.93v-5.21c0-2.15,0-4.31-.17-6.45a.07.07,0,0,1,.13,0c.15,2.16.37,4.3.48,6.47q.07,1.59.09,3.18v2.56l.55.62c2.5,2.85,4.87,5.8,7.18,8.8v-.5a8.736,8.736,0,0,1,.11-1c.08-.72.18-1.43.29-2.15s.2-1.34.32-2,.31-1.51.37-2.27c0-.09.14-.07.12,0a19.586,19.586,0,0,0-.26,2.29c-.07.69-.13,1.38-.19,2.06s-.13,1.38-.2,2.07a8.68,8.68,0,0,1-.1,1,4.261,4.261,0,0,1-.06.5.89.89,0,0,1-.13.39l1.19,1.56c1.58,2.09,3.13,4.2,4.68,6.31,0,.06-.05.15-.1.08-1.46-1.91-3-3.79-4.5-5.65-1.15.05-2.32,0-3.46-.05h-3.62a.07.07,0,0,1,0-.13h6.94c-1.34-1.63-2.7-3.26-4.06-4.88L446.9,338a7.261,7.261,0,0,1-1.4.05h-4.73c-2.12,0-4.24-.1-6.37-.11a.065.065,0,0,1,0-.13c2.12,0,4.25-.11,6.37-.17,1,0,2.06-.06,3.09-.07h2.65L443,333.34a.13.13,0,0,1-.06-.07c-1.14-1.35-2.28-2.69-3.44-4l-.47-.54c-3.25.1-6.48-.12-9.72-.05a.082.082,0,0,1-.04-.16Z" fill="#263238"/>
        <path id="Path_42" data-name="Path 42" d="M430.87,334.05h.76a.06.06,0,1,1,0,.12h-.75a.07.07,0,0,1-.01-.12Z" fill="#263238"/>
        <path id="Path_43" data-name="Path 43" d="M432.55,334.06l3-.07h1.5a5.461,5.461,0,0,1,1.4,0c.05,0,0,.08,0,.1a5.062,5.062,0,0,1-1.4.09h-4.51a.07.07,0,0,1,.01-.12Z" fill="#263238"/>
        <path id="Path_44" data-name="Path 44" d="M441.3,343.45a41,41,0,0,1,6.15-.56v.05c-2,.19-4.09.3-6.12.63C441.25,343.59,441.22,343.46,441.3,343.45Z" fill="#263238"/>
        <path id="Path_45" data-name="Path 45" d="M449.67,334.5l.06-.54a8.416,8.416,0,0,1,.18-1.21c.12-.76.25-1.52.4-2.28,0-.07.13-.05.12,0-.09.78-.18,1.57-.25,2.36,0,.39-.07.78-.1,1.16a3.09,3.09,0,0,1-.16,1.1.15.15,0,0,1-.27,0,1.369,1.369,0,0,1,.02-.59Z" fill="#263238"/>
        <path id="Path_46" data-name="Path 46" d="M408.72,311.61c1-1.86,2.26-4.31,4.74-4.15,2.06.13,3,2.22,3.42,4,1.36,5.36,1.45,11,1.72,16.49.55,11.6,1.06,23.21,1.13,34.83v9.65c0,3.29,0,6.59-.23,9.87a.25.25,0,0,1-.49,0c0-2.8.09-5.61.1-8.42s0-5.48-.06-8.22q-.13-8.32-.44-16.65c-.21-5.51-.45-11-.68-16.54-.12-2.75-.23-5.51-.36-8.26s-.23-5.34-.54-8c-.17-1.48-.39-3-.7-4.44a6.2,6.2,0,0,0-1.28-3,2.8,2.8,0,0,0-3.63-.26,7.7,7.7,0,0,0-2.58,3.2C408.79,311.75,408.68,311.68,408.72,311.61Z" fill="#263238"/>
        <path id="Path_47" data-name="Path 47" d="M409.39,310.72s2-7.22-2.48-3.61c-7.52,6-7.79,19.08-7.79,19.08s13.38-7.77,15-12.89C416.64,305.67,409.39,310.72,409.39,310.72Z" fill="#3282b8"/>
        <path id="Path_48" data-name="Path 48" d="M401.94,320.83c.12-.2.25-.39.38-.59a3.213,3.213,0,0,1,0-.62v-.93q0-.92-.06-1.83c0-.08.12-.08.13,0,0,.59.05,1.19.07,1.79v1.28c.52-.81,1.06-1.62,1.62-2.41l.49-.68a13.277,13.277,0,0,0,0-2.36c0-.84,0-1.68-.05-2.52,0-.08.13-.07.13,0,0,.87.07,1.74.11,2.61a16.685,16.685,0,0,1,0,1.87c1.3-1.75,2.67-3.45,4.05-5.13a.064.064,0,1,1,.1.08c-.86,1.09-1.68,2.2-2.49,3.33,1.58-.37,3.18-.58,4.78-.81.08,0,.11.11,0,.12-1.7.26-3.36.68-5,1.05h0c-.64.9-1.27,1.81-1.9,2.72l-.76,1.11h.07l.52-.07,1.11-.1c.77-.06,1.55-.1,2.32-.14.08,0,.08.12,0,.13a21.629,21.629,0,0,0-2.27.15l-1.19.15-.53.06h-.15l-1.29,1.9c-.75,1.11-1.42,2.31-2.23,3.39a.061.061,0,0,1-.1-.07,35.208,35.208,0,0,1,2.14-3.48Z" fill="#bbe1fa"/>
        <path id="Path_49" data-name="Path 49" d="M405.27,312.68v-.84a12.992,12.992,0,0,0-.07-1.77c0-.1.13-.11.13,0,0,.59.06,1.17.09,1.76v1.28a1.191,1.191,0,0,1,0,.42.06.06,0,0,1-.11,0,1.219,1.219,0,0,1,0-.38A1.908,1.908,0,0,1,405.27,312.68Z" fill="#263238"/>
        <path id="Path_50" data-name="Path 50" d="M406.92,315.67c.5-.09,1-.11,1.51-.16s1.1-.09,1.65-.16a.07.07,0,1,1,0,.13c-1,.06-2.1.25-3.16.29a.05.05,0,0,1,0-.1Z" fill="#263238"/>
        <path id="Path_51" data-name="Path 51" d="M402.72,315.71v1.52a1.07,1.07,0,0,1,0,.44h-.05a.47.47,0,0,1,0-.21,1.848,1.848,0,0,1,0-.23v-1.51C402.67,315.66,402.81,315.59,402.72,315.71Z" fill="#263238"/>
        <path id="Path_52" data-name="Path 52" d="M408.4,350.12c2.82-2.11,5.34-5.14,9.12-5.29,3.13-.13,5.31,2.22,6.57,4.84a28.675,28.675,0,0,1,1.53,4.31q.84,3,1.59,6,1.47,5.88,2.5,11.86c.38,2.22.74,4.45,1,6.69a56.135,56.135,0,0,1,.65,6.84.35.35,0,0,1-.69.08c-.38-1.87-.54-3.8-.82-5.69s-.56-3.8-.89-5.7c-.64-3.78-1.38-7.56-2.23-11.3-.81-3.54-1.6-7.13-2.75-10.58-.81-2.47-2.13-5.35-4.79-6.24-4.06-1.35-7.75,2.08-10.72,4.31C408.43,350.26,408.34,350.17,408.4,350.12Z" fill="#263238"/>
        <path id="Path_53" data-name="Path 53" d="M411.31,348.1s2.6-7.4-1.15-8.85c-5.62-2.18-20.33,14.39-17.45,39.77a144.392,144.392,0,0,0,19.75-13.31c8.39-7,10.54-16.24,6.85-18.61S411.31,348.1,411.31,348.1Z" fill="#bbe1fa"/>
        <path id="Path_54" data-name="Path 54" d="M394.41,373.58a19,19,0,0,1,1.36-2.56c.49-.87,1-1.74,1.47-2.59,1-1.67,1.95-3.35,2.95-5l.49-.8-.06-.29c-.06-.25-.11-.49-.17-.74-.12-.55-.22-1.11-.32-1.66-.2-1.09-.39-2.19-.69-3.25,0-.08.11-.11.13,0,.23,1.09.57,2.16.9,3.22.15.52.32,1,.46,1.57.05.18.1.37.14.55,1.21-2,2.44-3.95,3.76-5.86a2.689,2.689,0,0,1-.13-.81,8.74,8.74,0,0,0-.13-1.12c-.09-.83-.19-1.66-.31-2.5-.24-1.63-.49-3.26-.89-4.86,0-.08.1-.1.12,0,.41,1.6.85,3.19,1.15,4.82.15.79.29,1.59.4,2.39a9.8,9.8,0,0,0,.14,1.2v.37c.41-.58.82-1.15,1.24-1.71,1.3-1.71,2.65-3.38,4-5,.06-.06.16,0,.11.08a88.9,88.9,0,0,0-6.39,9.33l-1.11,1.79h.37c.47-.06,1-.09,1.43-.14l2.87-.25c1.92-.15,3.84-.27,5.74-.47.09,0,.11.12,0,.12-1.94.23-3.86.54-5.79.81-1,.14-1.9.26-2.85.38a11.049,11.049,0,0,1-2.19.23l-2.26,3.66h6.95c.08,0,.07.13,0,.13-1.25,0-2.49.08-3.74.15l-1.77.1-.89.07a2,2,0,0,1-.78,0l-1.92,3.11c-.59,1-1.18,1.92-1.79,2.87a23.443,23.443,0,0,1-1.93,2.89C394.48,373.7,394.38,373.66,394.41,373.58Z" fill="#263238"/>
        <path id="Path_55" data-name="Path 55" d="M399.82,353.06a18.256,18.256,0,0,0,.51,2.42c.21.82.45,1.63.72,2.44a.084.084,0,1,1-.16.05c-.25-.8-.47-1.61-.67-2.42s-.33-1.65-.52-2.46C399.68,353,399.81,353,399.82,353.06Z" fill="#263238"/>
        <path id="Path_56" data-name="Path 56" d="M408.17,358a.93.93,0,0,1,.62-.23l1.07-.15,2-.24c1.39-.16,2.77-.3,4.16-.47a.065.065,0,1,1,0,.13c-1.31.16-2.61.35-3.91.52-.64.09-1.28.18-1.92.25l-.92.11a2.92,2.92,0,0,0-1.06.18C408.17,358.15,408.13,358.07,408.17,358Z" fill="#263238"/>
        <path id="Path_57" data-name="Path 57" d="M399.84,369.18c.66-.05,1.32-.08,2-.1h1.48a3.23,3.23,0,0,0,.62,0c.09,0,.1.15,0,.13a2.84,2.84,0,0,0-.58,0h-.51l-1,.06c-.66,0-1.32.08-2,.08a.085.085,0,0,1-.01-.17Z" fill="#263238"/>
        <path id="Path_58" data-name="Path 58" d="M395.84,366.34c-.08-.37-.15-.74-.22-1.11-.13-.74-.27-1.47-.4-2.2,0-.08.11-.1.13,0l.48,2.14c.08.35.16.71.23,1.07a2.162,2.162,0,0,0,.11.49,1.37,1.37,0,0,1,.05.53c0,.06-.1.1-.14,0a2.72,2.72,0,0,1-.24-.92Z" fill="#263238"/>
        <path id="Path_59" data-name="Path 59" d="M399,388.21l.35,10.41,2.15,39.3h35l2.14-39.3.35-10.41Z" fill="#1b262c"/>
        <path id="Path_60" data-name="Path 60" d="M399,388.21l.35,10.41h39.29l.35-10.41Z" fill="#263238"/>
        <rect id="Rectangle_1128" data-name="Rectangle 1128" width="49.15" height="10.5" transform="translate(443.57 391.29) rotate(180)" fill="#37474f"/>
      </g>
      <g id="freepik--Floor--inject-2">
        <path id="Path_61" data-name="Path 61" d="M38.15,437.85l52.96-.25,52.96-.08L250,437.35l105.93.16,52.96.09,52.97.25-52.97.24-52.96.09L250,438.35l-105.93-.17-52.96-.09Z" fill="#263238"/>
      </g>
      <g id="freepik--Stairs--inject-2">
        <path id="Path_62" data-name="Path 62" d="M405.02,177.73,84.9,437.85H43.88V392.24H89.26V355.36h45.39V318.49h45.38V281.61h45.38V244.73h45.4V207.85h45.38V170.97l45.38-36.87v-.01l2.43-1.97Z" fill="#3282b8"/>
        <path id="Path_63" data-name="Path 63" d="M405.02,177.73,84.9,437.85H43.88V392.24H89.26V355.36h45.39V318.49h45.38V281.61h45.38V244.73h45.4V207.85h45.38V170.97l45.38-36.87v-.01l2.43-1.97Z" fill="#3282b8" opacity="0.1"/>
        <path id="Path_64" data-name="Path 64" d="M394.06,224.52l-24.37-57.55-57.9-30.89L456.13,96.73Z" fill="#3282b8"/>
        <g id="Group_7" data-name="Group 7" opacity="0.1">
          <path id="Path_65" data-name="Path 65" d="M394.06,224.52l-24.37-57.55-57.9-30.89L456.13,96.73Z" fill="#3282b8"/>
        </g>
        <g id="Group_8" data-name="Group 8" opacity="0.1">
          <rect id="Rectangle_1129" data-name="Rectangle 1129" width="15.59" height="36.87" transform="translate(89.26 355.36)" fill="#3282b8"/>
          <rect id="Rectangle_1130" data-name="Rectangle 1130" width="15.59" height="36.87" transform="translate(134.65 318.49)" fill="#3282b8"/>
          <rect id="Rectangle_1131" data-name="Rectangle 1131" width="15.59" height="36.87" transform="translate(180.04 281.61)" fill="#3282b8"/>
          <rect id="Rectangle_1132" data-name="Rectangle 1132" width="15.59" height="36.87" transform="translate(225.43 244.74)" fill="#3282b8"/>
          <rect id="Rectangle_1133" data-name="Rectangle 1133" width="15.59" height="36.87" transform="translate(270.82 207.87)" fill="#3282b8"/>
          <path id="Path_66" data-name="Path 66" d="M331.81,207.87H316.22V170.99l15.59-12.71Z" fill="#3282b8"/>
          <rect id="Rectangle_1134" data-name="Rectangle 1134" width="15.59" height="45.62" transform="translate(43.87 392.23)" fill="#3282b8"/>
        </g>
      </g>
      <g id="freepik--Character--inject-2">
        <path id="Path_67" data-name="Path 67" d="M127.43,90.86c-20.68,3.19-41.11,9.66-43.71,15.51-3.49,7.87-2.41,28.2-.88,38.7.45,3.08,24.39-.91,23.91-4.21-.58-4-3.9-24.56-3.83-25,.14-.85,20.35-13.92,25.25-16.93C136.37,94,136.61,89.45,127.43,90.86Z" fill="#d3766a"/>
        <path id="Path_68" data-name="Path 68" d="M86,160.7c-2.46-4.59-3.72-15.9-3-18.7s19.92-5.63,22.09-3.53,9.09,18.18,8.08,23.37S88.45,165.46,86,160.7Z" fill="#d3766a"/>
        <path id="Path_69" data-name="Path 69" d="M113.14,153.49c-2.35-1.42-2.68,2.17-2.68,2.17s-.77-5.28-3.76-5.8-3.13,3.84-3.15,4.15c0-.28-.88-5.1-3.94-5.32s-2.67,4.18-2.64,4.46c-.12-.25-1.81-3.53-4.17-3.17-4.06.63,0,9.13-1.21,12.22,0,0-5.47-1.49-5.64-1.5,0,0,3.72,8.17,8,9.6a2.86,2.86,0,0,0,3.39-1.19s.91,2.77,3.31,3c1.24.12,2.53-1.74,2.53-1.74a3.58,3.58,0,0,0,3,2.27c1.71.08,2.75-1.8,2.75-1.8s1.76,1.73,3.54,1.24C116,171.11,118.17,156.54,113.14,153.49Z" fill="#d3766a"/>
        <path id="Path_70" data-name="Path 70" d="M109.1,170.59s.05.07.07,0a25.6,25.6,0,0,0,1.33-15.15c0-.16-.32-.16-.31,0a52.55,52.55,0,0,1-1.09,15.15Z" fill="#263238"/>
        <path id="Path_71" data-name="Path 71" d="M103.18,170.47c0,.05.08.08.1,0a24,24,0,0,0,.43-16.62c-.07-.18-.32-.28-.26-.06C104.53,157.54,104.28,165.83,103.18,170.47Z" fill="#263238"/>
        <path id="Path_72" data-name="Path 72" d="M96.7,152.82c1.75,5.31,1.63,10.64.71,16.1,0,.07.09.08.12,0,1.17-2.55,1.39-6.09,1.33-8.86a14.67,14.67,0,0,0-2-7.32C96.83,152.67,96.66,152.71,96.7,152.82Z" fill="#263238"/>
        <path id="Path_73" data-name="Path 73" d="M110.46,155.66a17.2,17.2,0,0,0-1-2.91,5.68,5.68,0,0,0-1.77-2.35,1.85,1.85,0,0,0-1.28-.31,2.67,2.67,0,0,0-1.26.52,3.24,3.24,0,0,0-1.09,2.44l-.1,2.25-.69-2.14a9.05,9.05,0,0,0-1.34-2.67A3.32,3.32,0,0,0,99.68,149a1.89,1.89,0,0,0-2,1.21,5.76,5.76,0,0,0-.23,2.84l.36,2.64-1.2-2.36a9.07,9.07,0,0,0-1.24-1.83,3.59,3.59,0,0,0-1.71-1.15,1.69,1.69,0,0,0-1.71.53,3.69,3.69,0,0,0-.59,2,30.1,30.1,0,0,0,.29,4.62c.08.78.16,1.56.21,2.34a5.54,5.54,0,0,1-.23,2.33,6,6,0,0,0,0-2.31c-.1-.77-.24-1.54-.38-2.3a24.449,24.449,0,0,1-.54-4.71,4.3,4.3,0,0,1,.63-2.43,2.41,2.41,0,0,1,2.49-.88,4.4,4.4,0,0,1,2.17,1.4,9.13,9.13,0,0,1,1.42,2l-.84.28a6.54,6.54,0,0,1,.24-3.36,2.75,2.75,0,0,1,1.2-1.41,3.07,3.07,0,0,1,1.79-.34,4.18,4.18,0,0,1,2.86,1.86,9.66,9.66,0,0,1,1.43,3l-.79.1a3.92,3.92,0,0,1,1.51-2.95,3.33,3.33,0,0,1,1.59-.57A2.38,2.38,0,0,1,108,150a5.73,5.73,0,0,1,1.74,2.65,14.091,14.091,0,0,1,.72,3.01Z" fill="#263238"/>
        <path id="Path_74" data-name="Path 74" d="M106.77,141s17.07,13.87,8.38,17.89c-2.59,1.19-14.62,3-15,.6-.53-3.11,4.35-4.81,7.58-5.39,0,0-6.47-3.9-5.09-9.21a5.46,5.46,0,0,1,4.13-3.89Z" fill="#d3766a"/>
        <path id="Path_75" data-name="Path 75" d="M115.85,158.46a11.51,11.51,0,0,1-3.08,1.32,24.751,24.751,0,0,1-3.29.72,38.6,38.6,0,0,1-6.73.53,6.18,6.18,0,0,1-1.76-.27,2.36,2.36,0,0,1-.89-.51,1.61,1.61,0,0,1-.35-.44,2,2,0,0,1-.18-.53,2.81,2.81,0,0,1,.4-1.92,5.39,5.39,0,0,1,1.25-1.35,10,10,0,0,1,3.11-1.54,22.339,22.339,0,0,1,3.3-.8l-.12.72a13.34,13.34,0,0,1-2-1.61,12.861,12.861,0,0,1-1.67-1.94,8.72,8.72,0,0,1-1.11-2.3,6.68,6.68,0,0,1-.29-2.51,7.36,7.36,0,0,0,.55,2.42,9.11,9.11,0,0,0,1.25,2.1,12.3,12.3,0,0,0,1.7,1.76,12.761,12.761,0,0,0,2,1.41l.87.49-1,.23a24.152,24.152,0,0,0-3.16.86,10.14,10.14,0,0,0-2.82,1.44,2.78,2.78,0,0,0-1.3,2.37c.07.76,1.27,1,2.31,1a32.844,32.844,0,0,0,3.29,0,30.49,30.49,0,0,0,3.31-.22,21,21,0,0,0,6.41-1.43Z" fill="#263238"/>
        <path id="Path_76" data-name="Path 76" d="M107.56,140.08l-26.91-.39s-2-28.54,3.85-34.89c3.92-4.25,24.85-12.17,39.3-14s14.29,2.75,1.75,10.61-21.77,14.36-21.77,14.76S107.56,140.08,107.56,140.08Z" fill="#bbe1fa"/>
        <path id="Path_77" data-name="Path 77" d="M104,112.81a5.81,5.81,0,0,1,0-3.86,5.65,5.65,0,0,1,0,3.86Zm-22.52,10a5.08,5.08,0,0,0-.34-1.93,5.65,5.65,0,0,0,0,3.86,5,5,0,0,0,.29-1.95Zm33.38-15.21a4.15,4.15,0,0,0,.74.22l.83-.55a4.85,4.85,0,0,0-1.62.31Zm-13.24,17.61a5.19,5.19,0,0,0,1.92-.34,5,5,0,0,0-1.92-.34,5.24,5.24,0,0,0-1.93.34,5.46,5.46,0,0,0,1.88.32ZM85.35,107.92a5,5,0,0,0,1.92-.34,5,5,0,0,0-1.92-.34,5.21,5.21,0,0,0-1.93.34,5.42,5.42,0,0,0,1.93.34Zm3,24.42a5,5,0,0,0-1.6-1.12,5.14,5.14,0,0,0,1.13,1.6,5.29,5.29,0,0,0,1.6,1.12A5.14,5.14,0,0,0,88.35,132.34Zm8.55-30.58a5.26,5.26,0,0,0-1.6-1.13,5,5,0,0,0,1.12,1.6,5.14,5.14,0,0,0,1.6,1.13,5.29,5.29,0,0,0-1.12-1.6Zm30.5-3.43a4.76,4.76,0,0,0,.83,1.29c.19-.13.37-.25.54-.38a4.89,4.89,0,0,0-1.37-.91ZM97.78,138.62a5.55,5.55,0,0,0-1,1.3h.43a6.45,6.45,0,0,0,1-.83,5.07,5.07,0,0,0,1.12-1.6,5.24,5.24,0,0,0-1.55,1.13Zm13.69-39.94a5.19,5.19,0,0,0-1.13,1.61,5.77,5.77,0,0,0,2.73-2.73,5.29,5.29,0,0,0-1.6,1.12Zm-20,18.73a5,5,0,0,0-1.12,1.6,5.62,5.62,0,0,0,2.72-2.72,5.12,5.12,0,0,0-1.61,1.12Z" fill="#fff"/>
        <path id="Path_78" data-name="Path 78" d="M105,135.11c.08,0,.08-.13,0-.14A216.894,216.894,0,0,0,82.47,134c-.08,0-.08.13,0,.14A214.278,214.278,0,0,0,105,135.11Z" fill="#263238"/>
        <path id="Path_79" data-name="Path 79" d="M125.55,101.38c-12.55,7.85-21.77,14.36-21.77,14.76s3.78,23.94,3.78,23.94l-26.91-.39s-.36-5.11-.33-11.48L131.61,90.5C137.48,91.27,135.13,95.38,125.55,101.38Z" fill="#bbe1fa" opacity="0.1"/>
        <path id="Path_80" data-name="Path 80" d="M192.49,318.77c-1.84.61-54.25.2-56.24-1.09-.76-.47,4.87-47,4.87-47l33.73.32-6.15,29.53s20,9.13,22,10.77S194.32,318.18,192.49,318.77Z" fill="#d3766a"/>
        <path id="Path_81" data-name="Path 81" d="M192.49,318.77c-1.84.61-54.25.2-56.24-1.09-.37-.23.78-11.43,2.05-22.84h31.58l-1.18,5.65s20,9.13,22,10.77S194.32,318.18,192.49,318.77Z" fill="#ebebeb"/>
        <path id="Path_82" data-name="Path 82" d="M193.26,319c-1.87.63-55.27.61-57.3-.69-.78-.48,1.42-18.13,1.42-18.23l31.53-.11v.59s20.44,9.15,22.52,10.81S195.13,318.37,193.26,319Z" fill="#1b262c"/>
        <path id="Path_83" data-name="Path 83" d="M192.66,316.92c-9-.22-45.33-.28-54.25.18-.07,0-.07,0,0,.06,8.92.41,45.25.18,54.25-.09C192.85,317.06,192.85,316.93,192.66,316.92Z" fill="#263238"/>
        <path id="Path_84" data-name="Path 84" d="M172.74,300.06c-3.54-.66-7.87-.12-10.58,2.4-.11.1,0,.25.15.21a49.872,49.872,0,0,1,10.42-2.16.23.23,0,0,0,.01-.45Z" fill="#263238"/>
        <path id="Path_85" data-name="Path 85" d="M175.3,301.6c-3.55-.66-7.88-.12-10.59,2.4-.1.1,0,.25.15.21a50,50,0,0,1,10.42-2.16.23.23,0,0,0,.02-.45Z" fill="#263238"/>
        <path id="Path_86" data-name="Path 86" d="M177.85,303.15c-3.54-.67-7.87-.13-10.58,2.4-.11.09,0,.24.15.21a50,50,0,0,1,10.42-2.17.22.22,0,0,0,.01-.44Z" fill="#263238"/>
        <path id="Path_87" data-name="Path 87" d="M171.65,299.67l-35.36-.19s10.41-73.25,9.51-76.27c-.36-1.17-38.66-38.35-38.66-38.35-15.26-15.05-10.68-39.33-10.68-39.33h44s-2,10.73.27,13.07c2.78,2.84,36,38.68,40.32,50.1C186.86,224,171.65,299.67,171.65,299.67Z" fill="#37474f"/>
        <path id="Path_88" data-name="Path 88" d="M171.2,292.66c-5.44-.35-3.87-.34-9.32-.62-2.66-.13-20.16-1-22.67-.59-.05,0-.06.12,0,.14,2.47.6,20,1.09,22.65,1.16,5.44.15,3.88,0,9.33.11C171.29,292.86,171.3,292.67,171.2,292.66Z" fill="#263238"/>
        <path id="Path_89" data-name="Path 89" d="M142.64,160.59,126,203.22c-9.49-9.31-18.81-18.36-18.81-18.36-15.26-15.05-10.68-39.33-10.68-39.33h44s-2,10.73.27,13.07C141.06,158.91,141.71,159.59,142.64,160.59Z" fill="#263238"/>
        <path id="Path_90" data-name="Path 90" d="M113.08,355.67c-1.91.23-53.18-10.7-54.87-12.36-.65-.62.51-8.18,2.17-17.28v-.28c.34-1.88,9.37-33.25,9.37-33.25l33.41,7.87-9.62,32.06-.14.56s17.76,13,19.42,15S115,355.46,113.08,355.67Z" fill="#d3766a"/>
        <path id="Path_91" data-name="Path 91" d="M113.08,355.67c-1.91.23-53.18-10.7-54.87-12.36-.65-.62.51-8.18,2.17-17.28v-.28c.09-.49.78-3,1.75-6.5l33.19,7.24-1.78,5.94-.14.56s17.76,13,19.42,15S115,355.46,113.08,355.67Z" fill="#ebebeb"/>
        <path id="Path_92" data-name="Path 92" d="M113.57,355.88c-2,.22-54.16-11-55.87-12.73-.66-.63.53-8.33,2.25-17.6v-.29l33.76,6.89-.13.57S111.68,346,113.37,348,115.52,355.66,113.57,355.88Z" fill="#1b262c"/>
        <path id="Path_93" data-name="Path 93" d="M113.41,353.73c-8.75-2.12-44.25-9.82-53.06-11.24-.08,0-.09,0,0,.05,8.63,2.29,44.2,9.7,53.05,11.33C113.57,353.9,113.6,353.77,113.41,353.73Z" fill="#263238"/>
        <path id="Path_94" data-name="Path 94" d="M97.49,333.05c-3.32-1.39-7.67-1.77-10.85.12-.12.08,0,.25.1.24a49.8,49.8,0,0,1,10.64.08.23.23,0,0,0,.11-.44Z" fill="#263238"/>
        <path id="Path_95" data-name="Path 95" d="M99.66,335.1c-3.32-1.4-7.67-1.78-10.85.12-.12.07,0,.25.11.24a49.812,49.812,0,0,1,10.64.07.221.221,0,1,0,.1-.43Z" fill="#263238"/>
        <path id="Path_96" data-name="Path 96" d="M101.84,337.14c-3.32-1.39-7.67-1.77-10.85.12-.13.08,0,.25.1.24a49.8,49.8,0,0,1,10.64.08.23.23,0,0,0,.11-.44Z" fill="#263238"/>
        <path id="Path_97" data-name="Path 97" d="M132.06,145.53s2.86,24.51-2.2,30.09c0,0-9,56.44-12.16,72.7-4.23,21.46-21.24,83.56-21.24,83.56L59,325.55s22.07-80.49,22.25-81.89c1-7.93,10-63,9.51-64.37-4.69-14,2.08-33.76,2.08-33.76Z" fill="#37474f"/>
        <path id="Path_98" data-name="Path 98" d="M140.49,145.53s-3.57,25.9-10.63,30.09c0,0-9,56.44-12.16,72.7-4.23,21.46-21.24,83.56-21.24,83.56L59,325.55s22.07-80.49,22.25-81.89c1-7.93,10-63,9.51-64.37-4.69-14,2.08-33.76,2.08-33.76Z" fill="#37474f"/>
        <path id="Path_99" data-name="Path 99" d="M96.3,324.17c-5.54-1.23-3.93-1-9.48-2.14-2.71-.57-20.56-4.29-23.2-4.3-.06,0-.08.12,0,.14,2.45,1,20.37,4.36,23.09,4.87,5.58,1,4,.66,9.58,1.63C96.36,324.38,96.4,324.2,96.3,324.17Z" fill="#263238"/>
        <path id="Path_100" data-name="Path 100" d="M135,172.81a72.321,72.321,0,0,0-11.4,5.3.132.132,0,0,0,.11.24c3.84-1.65,7.75-3.23,11.5-5.09a.25.25,0,0,0-.21-.45Z" fill="#263238"/>
        <path id="Path_101" data-name="Path 101" d="M136.18,146.46c0-.13-.24-.16-.24,0,0,4.56-.26,8.57-.64,12.83-.18,2-1.77,12.91-5.2,12.11-.58-.13-.87-.7-1-1.56a13.4,13.4,0,0,1,.46-3.36c.38-2.28.68-4.58.88-6.89a63.5,63.5,0,0,0-.14-12.93.11.11,0,1,0-.22,0,118.248,118.248,0,0,1-1.05,17.85c-.43,2.84-1.86,7.12,1.12,7.56s5-6.72,5.35-8.68A65.67,65.67,0,0,0,136.18,146.46Z" fill="#263238"/>
        <path id="Path_102" data-name="Path 102" d="M130.19,171.67a18.38,18.38,0,0,0-.77,2.27,5,5,0,0,0-.32,1.86c0,.12.17.13.23,0a6.25,6.25,0,0,0,.8-1.81c.26-.7.54-1.4.78-2.1a.38.38,0,0,0-.72-.22Z" fill="#263238"/>
        <path id="Path_103" data-name="Path 103" d="M95.26,160.64c.83-.15,2,.15,5.66-.1a18.78,18.78,0,0,0,3-.49,6.5,6.5,0,0,0,2.75-1.11,14.36,14.36,0,0,0,3.14-4.33,22.53,22.53,0,0,0,2.2-5.33c0-.12.19-.06.17.05-.19,1-.3,2.11-.58,3.15a19.729,19.729,0,0,1-1,2.87,11.57,11.57,0,0,1-3.23,4.76c-1.63,1.23-3.9,1.45-5.87,1.59-1.14.08-5.62,0-6.22-.68C95.09,160.91,95.1,160.66,95.26,160.64Z" fill="#263238"/>
        <path id="Path_104" data-name="Path 104" d="M141.61,155.62c-1,.7-49.25-9.93-49.44-10.31-.54-1,23.5-49.48,37.27-56.27,3-1.46,10.39,1.59,11.92,3.72.95,1.34,2.06,9,2.69,15.32C145.32,120.64,142.48,155,141.61,155.62Z" fill="#bbe1fa"/>
        <path id="Path_105" data-name="Path 105" d="M128.77,116.14a5.65,5.65,0,0,1,0-3.86A5.65,5.65,0,0,1,128.77,116.14Zm11.57,20.06a5,5,0,0,0-.34-1.93,5,5,0,0,0-.34,1.93,5.41,5.41,0,0,0,.34,1.92A5.19,5.19,0,0,0,140.34,136.2Zm-26.56-1.71a5.2,5.2,0,0,0-.33-1.93,5.62,5.62,0,0,0,0,3.85,5.18,5.18,0,0,0,.33-1.92Zm3-26.57a5,5,0,0,0,1.92-.34,5,5,0,0,0-1.92-.34,5.21,5.21,0,0,0-1.93.34,5.42,5.42,0,0,0,1.89.34Zm-1.93,41.25a5.08,5.08,0,0,0,1.93-.34,5.65,5.65,0,0,0-3.86,0,5,5,0,0,0,1.89.34Zm-12.38-24.6c-.1.2-.21.4-.33.59a4.36,4.36,0,0,0,1.39-.31,4.16,4.16,0,0,0-1.1-.28Zm37.85-32.84h0a4.6,4.6,0,0,0-1.52.32,5,5,0,0,0,1.93.34H141a7.468,7.468,0,0,0-.72-.66Zm-12.2,36.57A5.08,5.08,0,0,0,130,128a5.65,5.65,0,0,0-3.86,0,5,5,0,0,0,1.94.3Zm9.23,21.8a5.08,5.08,0,0,0,1.93-.34,5.81,5.81,0,0,0-3.86,0,5,5,0,0,0,1.89.34Zm-20.9-28.91a5,5,0,0,0-1.6-1.12,5.12,5.12,0,0,0,1.12,1.6,5.41,5.41,0,0,0,1.6,1.12,5,5,0,0,0-1.16-1.6ZM129,99.46a5.19,5.19,0,0,0-1.61-1.13,5.66,5.66,0,0,0,2.73,2.73A5.29,5.29,0,0,0,129,99.46Zm11.44,22.47a5.12,5.12,0,0,0-1.6-1.12,5.69,5.69,0,0,0,2.73,2.72,5.14,5.14,0,0,0-1.12-1.6ZM140,106.55a5.14,5.14,0,0,0-1.13,1.6,5.77,5.77,0,0,0,2.73-2.73,5.14,5.14,0,0,0-1.6,1.13ZM97.8,138.62a5.12,5.12,0,0,0-1.12,1.6,5.62,5.62,0,0,0,2.72-2.72,5.24,5.24,0,0,0-1.62,1.12ZM126.59,140a5,5,0,0,0-1.12,1.61,5.14,5.14,0,0,0,1.6-1.13,5.29,5.29,0,0,0,1.12-1.6,5.291,5.291,0,0,0-1.6,1.12Z" fill="#fff"/>
        <path id="Path_106" data-name="Path 106" d="M139.52,98.08c-.15,4.79-.39,9.57-.65,14.36s-.58,9.55-.87,14.33-.68,9.56-1.08,14.33l-.6,7.16c-.23,2.38-.44,4.77-.7,7.15.07-2.4.19-4.79.28-7.18l.37-7.18c.26-4.78.59-9.55.88-14.33s.68-9.56,1.07-14.33S139,102.85,139.52,98.08Z" fill="#263238"/>
        <path id="Path_107" data-name="Path 107" d="M142.06,113a.9.9,0,1,1-.85-.94.9.9,0,0,1,.85.94Z" fill="#263238"/>
        <path id="Path_108" data-name="Path 108" d="M141.25,122.2a.9.9,0,1,1-.235-.648.9.9,0,0,1,.235.648Z" fill="#263238"/>
        <path id="Path_109" data-name="Path 109" d="M140.43,131.41a.9.9,0,1,1-.85-.94.89.89,0,0,1,.85.94Z" fill="#263238"/>
        <path id="Path_110" data-name="Path 110" d="M139.62,140.63a.9.9,0,1,1-.85-.94.89.89,0,0,1,.85.94Z" fill="#263238"/>
        <path id="Path_111" data-name="Path 111" d="M138.81,149.84a.9.9,0,1,1-.85-.94A.91.91,0,0,1,138.81,149.84Z" fill="#263238"/>
        <path id="Path_112" data-name="Path 112" d="M137.09,99c-3-.11-6.68-5.77-7.63-9.81-.06-.27,1-2.71,2.16-5.72.69-1.83,1.42-3.89,2-5.81l11.26,6.26a31.719,31.719,0,0,0-3.2,7.07,4,4,0,0,0-.14.81v.14C141.31,93.52,140,99.13,137.09,99Z" fill="#d3766a"/>
        <path id="Path_113" data-name="Path 113" d="M134.11,78c-.29,2.51-.83,11.63,6.11,13.71a10,10,0,0,0,1.26.28.39.39,0,0,0,0-.14,4.858,4.858,0,0,1,.13-.81,32,32,0,0,1,3.21-7.07Z" fill="#263238"/>
        <path id="Path_114" data-name="Path 114" d="M133.49,65.68c-1.67,4.33-.27,17.3,2.67,20.38,4.26,4.47,11.71,5.42,15.62.19,3.8-5.07,1.68-21.94-1.65-24.79C145.23,57.26,136,59.29,133.49,65.68Z" fill="#d3766a"/>
        <path id="Path_115" data-name="Path 115" d="M145.35,74.41a.063.063,0,0,0-.06.08c.11.87.1,1.89-.66,2.26h0C145.6,76.56,145.6,75.21,145.35,74.41Z" fill="#263238"/>
        <path id="Path_116" data-name="Path 116" d="M144.47,73.57c-1.41,0-1.23,2.87.08,2.84S145.66,73.54,144.47,73.57Z" fill="#263238"/>
        <path id="Path_117" data-name="Path 117" d="M150.2,74.12a.081.081,0,0,1,.08.07c0,.88.2,1.88,1,2.12h0C150.31,76.29,150.09,75,150.2,74.12Z" fill="#263238"/>
        <path id="Path_118" data-name="Path 118" d="M150.93,73.16c1.4-.2,1.69,2.62.39,2.8S149.75,73.32,150.93,73.16Z" fill="#263238"/>
        <path id="Path_119" data-name="Path 119" d="M143.27,72.35a10.068,10.068,0,0,0,1.07-.45,1.87,1.87,0,0,0,1-.68.61.61,0,0,0-.14-.72,1.51,1.51,0,0,0-1.51,0,2.19,2.19,0,0,0-1.2,1,.64.64,0,0,0,.78.85Z" fill="#263238"/>
        <path id="Path_120" data-name="Path 120" d="M151.93,71.66a10.916,10.916,0,0,1-1.14-.22,1.86,1.86,0,0,1-1.13-.45.61.61,0,0,1,0-.73,1.49,1.49,0,0,1,1.46-.37,2.16,2.16,0,0,1,1.39.75.64.64,0,0,1-.58,1.02Z" fill="#263238"/>
        <path id="Path_121" data-name="Path 121" d="M144.8,82.62c.22.19.45.46.77.47a2.63,2.63,0,0,0,.93-.28h0a1.21,1.21,0,0,1-1.09.55.93.93,0,0,1-.73-.73S144.76,82.59,144.8,82.62Z" fill="#263238"/>
        <path id="Path_122" data-name="Path 122" d="M145.55,79.94a3,3,0,0,0,2.08,1.2,3.56,3.56,0,0,0,1.08,0h.39a.22.22,0,0,0,.16-.21h0a.28.28,0,0,0,0-.09h0v-.08a14.8,14.8,0,0,0-.15-1.69c.25.1,1.54.59,1.5.24a45.18,45.18,0,0,0-1.73-9c0-.1-.18-.06-.16,0,.23,2.81,1,5.56,1.24,8.38a5.09,5.09,0,0,0-1.43-.34c-.1,0,.29,2,.27,2.27h0a4.14,4.14,0,0,1-3.15-.77C145.56,79.81,145.49,79.87,145.55,79.94Z" fill="#263238"/>
        <path id="Path_123" data-name="Path 123" d="M148.2,81a3.48,3.48,0,0,1-1.44,1,1.64,1.64,0,0,1-1,0c-.69-.2-.69-.84-.55-1.38a3.55,3.55,0,0,1,.33-.83A4.56,4.56,0,0,0,148.2,81Z" fill="#263238"/>
        <path id="Path_124" data-name="Path 124" d="M146.76,82a1.64,1.64,0,0,1-1,0c-.69-.2-.69-.84-.55-1.38A1.62,1.62,0,0,1,146.76,82Z" fill="#f291b8"/>
        <path id="Path_125" data-name="Path 125" d="M152.54,66.51c-4.13,3.34-10.47-.71-10.47-.71a4.77,4.77,0,0,1-4.58,3.4s-.26,7.46-2.21,7.6c-3,.22-4.7-9.79-3.92-11.85a5.3,5.3,0,0,1,3.25-2.76,4.86,4.86,0,0,1,1.79-3.11c1.9-1.71,9.07-.18,9.07-.18a6.64,6.64,0,0,1,1.6-2.57,1.86,1.86,0,0,1,2.67,0,4.33,4.33,0,0,0-.57,1.89c-.18,2.19,1.59,2,1.42.08a3.13,3.13,0,0,0-.85-2c.77-1.35,2.16-1.88,3.08-1.26C154.49,56.22,156,63.73,152.54,66.51Z" fill="#263238"/>
        <path id="Path_126" data-name="Path 126" d="M136.32,76s-2.68-4.3-4.62-3.36-.07,7,2.09,8a2.25,2.25,0,0,0,3.07-1Z" fill="#d3766a"/>
        <path id="Path_127" data-name="Path 127" d="M132.28,74.33v.06a5.67,5.67,0,0,1,2.74,3.7,1.25,1.25,0,0,0-1.84-.44v.09a1.38,1.38,0,0,1,1.49.56,6.7,6.7,0,0,1,.67,1.27c.06.14.32.08.27-.08h0C135.77,77.48,134.39,74.64,132.28,74.33Z" fill="#263238"/>
        <path id="Path_128" data-name="Path 128" d="M141.48,92l-2.35,5.78L129.75,88,127,90.83s8,15.18,8.12,14.52l4.22-6.15,3.24,4.66.34-9.3Z" fill="#bbe1fa"/>
        <path id="Path_129" data-name="Path 129" d="M143,98.43c0-1.82.09-2,0-3.77a.06.06,0,0,0-.12,0c-.46,1.73-.44,7-.54,8.64h0c-.17-.2-3-4.11-3-4.06-.71,1-4,5.45-4.21,5.86-1.27-2.41-6.15-11.2-7.69-13.49a.06.06,0,0,0-.11.05c1.1,2.53,7.55,14.35,7.66,14.33a58.051,58.051,0,0,0,4.38-6.5c.61.83,3.4,5.22,3.43,5a56.635,56.635,0,0,0,.2-6.06Z" fill="#263238"/>
        <rect id="Rectangle_1135" data-name="Rectangle 1135" width="65.84" height="39.89" transform="matrix(0.772, -0.636, 0.636, 0.772, 157.187, 198.319)" fill="#3282b8"/>
        <rect id="Rectangle_1136" data-name="Rectangle 1136" width="65.84" height="18.78" transform="matrix(0.772, -0.636, 0.636, 0.772, 157.184, 198.317)" opacity="0.1"/>
        <path id="Path_141" data-name="Path 141" d="M0,0H68.95V18.62H0Z" transform="matrix(0.772, -0.636, 0.636, 0.772, 152.247, 194.792)" fill="#0f4c75"/>
        <path id="Path_130" data-name="Path 130" d="M183.29,155.44l6.76,8.2-3.86,3.17-3.84-4.66-14.69,12.12,3.84,4.66-3.85,3.18-6.76-8.2Z" fill="#263238"/>
        <rect id="Rectangle_1138" data-name="Rectangle 1138" width="4.49" height="8.89" transform="matrix(0.772, -0.636, 0.636, 0.772, 168.571, 199.7)" fill="#263238"/>
        <rect id="Rectangle_1139" data-name="Rectangle 1139" width="4.49" height="8.89" transform="matrix(0.772, -0.636, 0.636, 0.772, 203.699, 170.737)" fill="#263238"/>
        <path id="Path_131" data-name="Path 131" d="M119.33,101.84C111,120.16,109,140,113,144.53c5.7,6.46,25.39,17.43,35.41,20.91,2.94,1,10.45-22.05,7.3-23.15-3.8-1.32-25.07-10.15-25.4-10.39-.69-.52-1.21-22.92-1.13-28.56C129.32,93,123.85,91.88,119.33,101.84Z" fill="#d3766a"/>
        <path id="Path_132" data-name="Path 132" d="M184.93,154.56a3.73,3.73,0,0,1-2.54,3.4,5.49,5.49,0,0,1,.79,3.66c-.41,2.23-4.08,2.57-4.08,2.57a6.81,6.81,0,0,1,.22,4c-.61,2.1-4.27,3-4.27,3a6,6,0,0,1-2,3.63c-3,2.37-8.5.39-12-.83s-12.31-8-14.12-9.08l7.64-22.58s17.28,1,21.2,3C179,147,184.92,151.66,184.93,154.56Z" fill="#d3766a"/>
        <path id="Path_133" data-name="Path 133" d="M182.36,157.54c-3.08-2.65-6.77-4.25-10.37-6a.07.07,0,1,0-.06.12c3.6,1.75,6.8,4.2,10.32,6.09a.119.119,0,0,0,.11-.21Z" fill="#263238"/>
        <path id="Path_134" data-name="Path 134" d="M179.12,163.87a10.06,10.06,0,0,0-2.45-1.29c-.9-.4-1.8-.78-2.71-1.14q-2.73-1.11-5.52-2.07c-.08,0-.15.1-.06.13,1.81.73,3.62,1.49,5.4,2.3l2.67,1.24a12.639,12.639,0,0,0,2.55,1.07.14.14,0,0,0,.12-.24Z" fill="#263238"/>
        <path id="Path_135" data-name="Path 135" d="M175,171.11a7.33,7.33,0,0,0-2.27-1l-2.5-1c-1.67-.65-3.34-1.31-5-2-.08,0-.15.09-.06.13,1.66.73,3.32,1.48,5,2.19.82.36,1.65.7,2.47,1a6.94,6.94,0,0,0,2.32.75.05.05,0,0,0,.04-.07Z" fill="#263238"/>
        <path id="Path_136" data-name="Path 136" d="M155,141.78l-14.34,23.06s-28.27-16.16-29.73-21.75.76-26.29,7.09-39.41,11.8-11.88,11.53,2.92.8,24.79,1.14,25S155,141.78,155,141.78Z" fill="#bbe1fa"/>
        <path id="Path_137" data-name="Path 137" d="M128.77,116.14a5.65,5.65,0,0,1,0-3.86A5.65,5.65,0,0,1,128.77,116.14Zm11.55,19.54-.61-.25a6.638,6.638,0,0,0-.05.77,5.41,5.41,0,0,0,.34,1.92,5.19,5.19,0,0,0,.34-1.92C140.34,136,140.33,135.86,140.32,135.68Zm-26.54-1.19a5.2,5.2,0,0,0-.33-1.93,5.62,5.62,0,0,0,0,3.85,5.18,5.18,0,0,0,.33-1.92Zm12.37,19a5.24,5.24,0,0,0-.34,1.93q0,.165,0,.33l.61.41a6.128,6.128,0,0,0,0-.74,5,5,0,0,0-.27-1.94Zm-9.41-46.24h-.3c-.09.21-.17.43-.25.64h.55a5,5,0,0,0,1.92-.34,5,5,0,0,0-1.92-.31Zm-.89,41.35.47.38h0a3.306,3.306,0,0,0,.41-.14,3.68,3.68,0,0,0-.88-.25Zm12.23-20.29A5.08,5.08,0,0,0,130,128a5.65,5.65,0,0,0-3.86,0,5,5,0,0,0,1.94.3Zm9.23,21.8a5.081,5.081,0,0,0,1.93-.34,5.81,5.81,0,0,0-3.86,0,5,5,0,0,0,1.93.33Zm1.57,13a5.12,5.12,0,0,0-1.6-1.12,5,5,0,0,0,1.1,1.58h0l1.46.86a5.39,5.39,0,0,0-.96-1.36Zm-22.47-41.88a5,5,0,0,0-1.6-1.12,5.12,5.12,0,0,0,1.12,1.6,5.41,5.41,0,0,0,1.6,1.12,5,5,0,0,0-1.12-1.64Zm12.65-21.67h0l-.05-.05a5.19,5.19,0,0,0-1.61-1.13,5.31,5.31,0,0,0,1.13,1.61,6.5,6.5,0,0,0,.69.59c-.04-.4-.1-.74-.16-1.06Zm21.26,44.37a5.29,5.29,0,0,0-1.6-1.12,5.14,5.14,0,0,0,1.13,1.6,5,5,0,0,0,1.6,1.12,5.26,5.26,0,0,0-1.13-1.64ZM126.59,140a5,5,0,0,0-1.12,1.61,5.14,5.14,0,0,0,1.6-1.13,5.29,5.29,0,0,0,1.12-1.6,5.291,5.291,0,0,0-1.6,1.12Z" fill="#fff"/>
        <path id="Path_138" data-name="Path 138" d="M148.72,141.27c0-.07-.07-.14-.12-.08A198.449,198.449,0,0,0,137,159.36c0,.07.07.14.12.08a198.451,198.451,0,0,0,11.6-18.17Z" fill="#263238"/>
        <path id="Path_139" data-name="Path 139" d="M119.87,151.37a35.31,35.31,0,0,1-6.73-5.51A6.84,6.84,0,0,1,111,142a26.063,26.063,0,0,1-.12-4.24,99.3,99.3,0,0,1,2-18.1,97.587,97.587,0,0,1,2.62-9.8c0-.06-.07-.08-.09,0A66.1,66.1,0,0,0,113,117a40.841,40.841,0,0,1,.54-4.41c0-.06-.09-.09-.1,0a26.39,26.39,0,0,0-.51,2.93c-.07.75-.11,1.5-.13,2.25a87.28,87.28,0,0,0-2.11,10.51,74.32,74.32,0,0,0-.69,9.3,24.7,24.7,0,0,0,.14,4.47,6.83,6.83,0,0,0,1.69,3.51,31.13,31.13,0,0,0,8,5.95.08.08,0,0,0,.04-.14Z" fill="#263238"/>
        <path id="Path_140" data-name="Path 140" d="M143.59,136.91c-4-1.85-8-3.55-12.1-5.21a2.37,2.37,0,0,1-.53-.26,1.26,1.26,0,0,1-.35-1c-.05-.54-.09-1.07-.13-1.61-.09-1.12-.17-2.23-.25-3.35-.14-2.19-.24-4.38-.35-6.57v-.34c.21-1.4.44-2.81.55-4.22a.06.06,0,0,0-.12,0c-.21,1.06-.35,2.15-.47,3.23-.11-2.08-.21-4.15-.31-6.23h-.06c-.14,4.73,0,9.44.31,14.16.08,1.15.16,2.31.25,3.46.05.58.09,1.16.15,1.74a1.71,1.71,0,0,0,.24.86,2.2,2.2,0,0,0,1,.6l1.71.72,3.19,1.32c2.41,1,4.83,1.93,7.28,2.83C143.62,137.09,143.67,137,143.59,136.91Z" fill="#263238"/>
      </g>
    </g>
  </g>
</svg>
