<svg xmlns="http://www.w3.org/2000/svg" width="94" height="148" viewBox="0 0 94 148">
  <g id="Group_107" data-name="Group 107" transform="translate(43 -495)">
    <g id="circle_vec" data-name="circle vec" transform="translate(-5846 -1935)">
      <circle id="Ellipse_16" data-name="Ellipse 16" cx="6" cy="6" r="6" transform="translate(5803 2509)" fill="rgba(187,225,250,0.65)"/>
      <circle id="Ellipse_17" data-name="Ellipse 17" cx="6" cy="6" r="6" transform="translate(5803 2528)" fill="rgba(187,225,250,0.65)"/>
      <circle id="Ellipse_18" data-name="Ellipse 18" cx="6" cy="6" r="6" transform="translate(5803 2547)" fill="rgba(187,225,250,0.65)"/>
      <circle id="Ellipse_19" data-name="Ellipse 19" cx="6" cy="6" r="6" transform="translate(5803 2566)" fill="rgba(187,225,250,0.65)"/>
      <ellipse id="Ellipse_20" data-name="Ellipse 20" cx="6.5" cy="6" rx="6.5" ry="6" transform="translate(5819 2509)" fill="rgba(187,225,250,0.65)"/>
      <ellipse id="Ellipse_21" data-name="Ellipse 21" cx="6.5" cy="6" rx="6.5" ry="6" transform="translate(5819 2528)" fill="rgba(187,225,250,0.65)"/>
      <ellipse id="Ellipse_22" data-name="Ellipse 22" cx="6.5" cy="6" rx="6.5" ry="6" transform="translate(5819 2547)" fill="rgba(187,225,250,0.65)"/>
      <ellipse id="Ellipse_23" data-name="Ellipse 23" cx="6.5" cy="6" rx="6.5" ry="6" transform="translate(5819 2566)" fill="rgba(187,225,250,0.65)"/>
      <circle id="Ellipse_24" data-name="Ellipse 24" cx="6" cy="6" r="6" transform="translate(5836 2566)" fill="rgba(187,225,250,0.65)"/>
      <circle id="Ellipse_25" data-name="Ellipse 25" cx="6" cy="6" r="6" transform="translate(5836 2547)" fill="rgba(187,225,250,0.65)"/>
      <circle id="Ellipse_26" data-name="Ellipse 26" cx="6" cy="6" r="6" transform="translate(5836 2528)" fill="rgba(187,225,250,0.65)"/>
      <circle id="Ellipse_27" data-name="Ellipse 27" cx="6" cy="6" r="6" transform="translate(5836 2509)" fill="rgba(187,225,250,0.65)"/>
      <ellipse id="Ellipse_28" data-name="Ellipse 28" cx="6" cy="5.5" rx="6" ry="5.5" transform="translate(5852 2510)" fill="rgba(187,225,250,0.65)"/>
      <circle id="Ellipse_29" data-name="Ellipse 29" cx="6" cy="6" r="6" transform="translate(5852 2528)" fill="rgba(187,225,250,0.65)"/>
      <ellipse id="Ellipse_30" data-name="Ellipse 30" cx="6" cy="6.5" rx="6" ry="6.5" transform="translate(5852 2546)" fill="rgba(187,225,250,0.65)"/>
      <circle id="Ellipse_31" data-name="Ellipse 31" cx="6" cy="6" r="6" transform="translate(5852 2566)" fill="rgba(187,225,250,0.65)"/>
      <ellipse id="Ellipse_32" data-name="Ellipse 32" cx="6.5" cy="6" rx="6.5" ry="6" transform="translate(5868 2566)" fill="rgba(187,225,250,0.65)"/>
      <ellipse id="Ellipse_33" data-name="Ellipse 33" cx="6.5" cy="6" rx="6.5" ry="6" transform="translate(5868 2547)" fill="rgba(187,225,250,0.65)"/>
      <ellipse id="Ellipse_34" data-name="Ellipse 34" cx="6.5" cy="6" rx="6.5" ry="6" transform="translate(5868 2528)" fill="rgba(187,225,250,0.65)"/>
      <ellipse id="Ellipse_35" data-name="Ellipse 35" cx="6.5" cy="6" rx="6.5" ry="6" transform="translate(5868 2509)" fill="rgba(187,225,250,0.65)"/>
      <ellipse id="Ellipse_36" data-name="Ellipse 36" cx="6" cy="5.5" rx="6" ry="5.5" transform="translate(5885 2510)" fill="rgba(187,225,250,0.65)"/>
      <circle id="Ellipse_37" data-name="Ellipse 37" cx="6" cy="6" r="6" transform="translate(5885 2528)" fill="rgba(187,225,250,0.65)"/>
      <ellipse id="Ellipse_38" data-name="Ellipse 38" cx="6" cy="6.5" rx="6" ry="6.5" transform="translate(5885 2546)" fill="rgba(187,225,250,0.65)"/>
      <circle id="Ellipse_39" data-name="Ellipse 39" cx="6" cy="6" r="6" transform="translate(5885 2565)" fill="rgba(187,225,250,0.65)"/>
    </g>
    <g id="circle_vec-2" data-name="circle vec" transform="translate(-5844 -2014)">
      <circle id="Ellipse_16-2" data-name="Ellipse 16" cx="6" cy="6" r="6" transform="translate(5803 2509)" fill="rgba(187,225,250,0.57)"/>
      <ellipse id="Ellipse_17-2" data-name="Ellipse 17" cx="6" cy="5.5" rx="6" ry="5.5" transform="translate(5803 2528)" fill="rgba(187,225,250,0.57)"/>
      <ellipse id="Ellipse_18-2" data-name="Ellipse 18" cx="6" cy="5.5" rx="6" ry="5.5" transform="translate(5803 2546)" fill="rgba(187,225,250,0.57)"/>
      <circle id="Ellipse_19-2" data-name="Ellipse 19" cx="6" cy="6" r="6" transform="translate(5803 2564)" fill="rgba(187,225,250,0.57)"/>
      <circle id="Ellipse_20-2" data-name="Ellipse 20" cx="6" cy="6" r="6" transform="translate(5819 2509)" fill="rgba(187,225,250,0.57)"/>
      <ellipse id="Ellipse_21-2" data-name="Ellipse 21" cx="6" cy="5.5" rx="6" ry="5.5" transform="translate(5819 2528)" fill="rgba(187,225,250,0.57)"/>
      <ellipse id="Ellipse_22-2" data-name="Ellipse 22" cx="6" cy="5.5" rx="6" ry="5.5" transform="translate(5819 2546)" fill="rgba(187,225,250,0.57)"/>
      <circle id="Ellipse_23-2" data-name="Ellipse 23" cx="6" cy="6" r="6" transform="translate(5819 2564)" fill="rgba(187,225,250,0.57)"/>
      <circle id="Ellipse_24-2" data-name="Ellipse 24" cx="6" cy="6" r="6" transform="translate(5835 2564)" fill="rgba(187,225,250,0.57)"/>
      <ellipse id="Ellipse_25-2" data-name="Ellipse 25" cx="6" cy="5.5" rx="6" ry="5.5" transform="translate(5835 2546)" fill="rgba(187,225,250,0.57)"/>
      <ellipse id="Ellipse_26-2" data-name="Ellipse 26" cx="6" cy="5.5" rx="6" ry="5.5" transform="translate(5835 2528)" fill="rgba(187,225,250,0.57)"/>
      <circle id="Ellipse_27-2" data-name="Ellipse 27" cx="6" cy="6" r="6" transform="translate(5835 2509)" fill="rgba(187,225,250,0.57)"/>
      <ellipse id="Ellipse_28-2" data-name="Ellipse 28" cx="6" cy="5.5" rx="6" ry="5.5" transform="translate(5851 2510)" fill="rgba(187,225,250,0.57)"/>
      <ellipse id="Ellipse_29-2" data-name="Ellipse 29" cx="6" cy="5.5" rx="6" ry="5.5" transform="translate(5851 2528)" fill="rgba(187,225,250,0.57)"/>
      <circle id="Ellipse_30-2" data-name="Ellipse 30" cx="6" cy="6" r="6" transform="translate(5851 2545)" fill="rgba(187,225,250,0.57)"/>
      <circle id="Ellipse_31-2" data-name="Ellipse 31" cx="6" cy="6" r="6" transform="translate(5851 2564)" fill="rgba(187,225,250,0.57)"/>
      <circle id="Ellipse_32-2" data-name="Ellipse 32" cx="6" cy="6" r="6" transform="translate(5867 2564)" fill="rgba(187,225,250,0.57)"/>
      <ellipse id="Ellipse_33-2" data-name="Ellipse 33" cx="6" cy="5.5" rx="6" ry="5.5" transform="translate(5867 2546)" fill="rgba(187,225,250,0.57)"/>
      <ellipse id="Ellipse_34-2" data-name="Ellipse 34" cx="6" cy="5.5" rx="6" ry="5.5" transform="translate(5867 2528)" fill="rgba(187,225,250,0.57)"/>
      <circle id="Ellipse_35-2" data-name="Ellipse 35" cx="6" cy="6" r="6" transform="translate(5867 2509)" fill="rgba(187,225,250,0.57)"/>
      <ellipse id="Ellipse_36-2" data-name="Ellipse 36" cx="6" cy="5.5" rx="6" ry="5.5" transform="translate(5883 2510)" fill="rgba(187,225,250,0.57)"/>
      <ellipse id="Ellipse_37-2" data-name="Ellipse 37" cx="6" cy="5.5" rx="6" ry="5.5" transform="translate(5883 2528)" fill="rgba(187,225,250,0.57)"/>
      <circle id="Ellipse_38-2" data-name="Ellipse 38" cx="6" cy="6" r="6" transform="translate(5883 2545)" fill="rgba(187,225,250,0.57)"/>
      <circle id="Ellipse_39-2" data-name="Ellipse 39" cx="6" cy="6" r="6" transform="translate(5883 2563)" fill="rgba(187,225,250,0.57)"/>
    </g>
  </g>
</svg>
