<svg xmlns="http://www.w3.org/2000/svg" xmlns:xlink="http://www.w3.org/1999/xlink" width="172.611" height="179.424" viewBox="0 0 172.611 179.424">
  <defs>
    <linearGradient id="linear-gradient" x1="0.5" y1="-0.012" x2="0.5" y2="1.061" gradientUnits="objectBoundingBox">
      <stop offset="0" stop-color="#bbe1fa"/>
      <stop offset="1" stop-color="#e6abff"/>
    </linearGradient>
    <linearGradient id="linear-gradient-3" x1="0.5" y1="-7.917" x2="0.5" y2="14.917" gradientUnits="objectBoundingBox">
      <stop offset="0" stop-color="#1a6dff"/>
      <stop offset="1" stop-color="#c822ff"/>
    </linearGradient>
  </defs>
  <g id="Group_110" data-name="Group 110" transform="translate(-1340.194 -942)">
    <path id="Path_162" data-name="Path 162" d="M0,0H172.611L159.274,135.031,66.628,179.424,0,113.8Z" transform="translate(1340.194 942)" fill="rgba(187,225,250,0.26)"/>
    <g id="icons8-info" transform="translate(1362 935)">
      <path id="Path_347" data-name="Path 347" d="M39.115,51.269A2.713,2.713,0,0,1,36.4,53.981H14.712A2.713,2.713,0,0,1,12,51.269V37.712A2.713,2.713,0,0,1,14.712,35H36.4a2.713,2.713,0,0,1,2.712,2.712Z" transform="translate(10.269 42.788)" fill="url(#linear-gradient)"/>
      <path id="Path_348" data-name="Path 348" d="M59.115,51.269A2.713,2.713,0,0,1,56.4,53.981H34.712A2.713,2.713,0,0,1,32,51.269V37.712A2.713,2.713,0,0,1,34.712,35H56.4a2.713,2.713,0,0,1,2.712,2.712Z" transform="translate(44.5 42.788)" fill="url(#linear-gradient)"/>
      <path id="Path_349" data-name="Path 349" d="M117.173,10A29.855,29.855,0,0,0,89.418,28.981H73.788a13.509,13.509,0,0,0-10.846,5.507A13.509,13.509,0,0,0,52.1,28.981H19.558A13.573,13.573,0,0,0,6,42.538v67.788a13.573,13.573,0,0,0,13.558,13.558h35.25a5.429,5.429,0,0,1,5.423,5.423h5.423a5.429,5.429,0,0,1,5.423-5.423h35.25a13.573,13.573,0,0,0,13.558-13.558V69.516A29.819,29.819,0,0,0,117.173,10ZM54.808,118.462H19.558a8.146,8.146,0,0,1-7.5-4.989,13.469,13.469,0,0,0,7.5,2.278H52.1a8.115,8.115,0,0,1,6.651,3.479A10.753,10.753,0,0,0,54.808,118.462ZM52.1,110.327H19.558a8.145,8.145,0,0,1-8.135-8.135V42.538A8.145,8.145,0,0,1,19.558,34.4H52.1a8.145,8.145,0,0,1,8.135,8.135v70.576A13.33,13.33,0,0,0,52.1,110.327Zm54.231,8.135H71.077a10.753,10.753,0,0,0-3.94.767,8.115,8.115,0,0,1,6.651-3.479h32.538a13.469,13.469,0,0,0,7.5-2.278A8.143,8.143,0,0,1,106.327,118.462Zm8.135-21.692v5.423a8.145,8.145,0,0,1-8.135,8.135H73.788a13.33,13.33,0,0,0-8.135,2.787V42.538A8.145,8.145,0,0,1,73.788,34.4H87.864a28.652,28.652,0,0,0,0,10.846H76.5v5.423H89.418A29.761,29.761,0,0,0,92.205,56.1H76.5v5.423H96.766a29.7,29.7,0,0,0,17.7,8Zm2.712-32.538a24.4,24.4,0,1,1,24.4-24.4A24.43,24.43,0,0,1,117.173,64.231Z" transform="translate(0 0)" fill="#3282b8"/>
      <path id="Path_350" data-name="Path 350" d="M12,23H39.115v5.423H12Z" transform="translate(10.269 22.25)" fill="#3282b8"/>
      <path id="Path_351" data-name="Path 351" d="M12,27H39.115v5.423H12Z" transform="translate(10.269 29.096)" fill="#3282b8"/>
      <path id="Path_352" data-name="Path 352" d="M12,31H39.115v5.423H12Z" transform="translate(10.269 35.942)" fill="#3282b8"/>
      <path id="Path_353" data-name="Path 353" d="M32,31H59.115v5.423H32Z" transform="translate(44.5 35.942)" fill="#3282b8"/>
      <path id="Path_354" data-name="Path 354" d="M46,15h5.423V36.692H46Z" transform="translate(68.462 8.558)" fill="#3282b8"/>
      <path id="Path_355" data-name="Path 355" d="M46,25h5.423v5.423H46Z" transform="translate(68.462 25.673)" fill="url(#linear-gradient-3)"/>
    </g>
  </g>
</svg>
