<svg xmlns="http://www.w3.org/2000/svg" width="80" height="80.007" viewBox="0 0 80 80.007">
  <g id="management" transform="translate(-0.023)">
    <g id="Group_56" data-name="Group 56" transform="translate(0.023 0)">
      <path id="Path_436" data-name="Path 436" d="M311.214,77.514a10.391,10.391,0,1,0,11.042,11.042,10.391,10.391,0,0,0-11.042-11.042Zm8.7,10.894a8.047,8.047,0,1,1-8.555-8.555A8.043,8.043,0,0,1,319.917,88.409Z" transform="translate(-254.387 -65.384)" fill="#0f4c75"/>
      <path id="Path_437" data-name="Path 437" d="M75.414,16.98a1.891,1.891,0,0,1-1.331-3.233,4.6,4.6,0,0,0,0-6.506L72.729,5.887a4.531,4.531,0,0,0-6.459.058A1.891,1.891,0,0,1,63.043,4.6a4.606,4.606,0,0,0-4.6-4.6H56.6A4.605,4.605,0,0,0,52,4.6a1.891,1.891,0,0,1-3.233,1.339,4.6,4.6,0,0,0-6.506,0l-1.3,1.3a4.584,4.584,0,0,0-.868,1.209,11.024,11.024,0,0,0-5.786-1.633H24.077a5.454,5.454,0,0,0-5.144,3.652.389.389,0,0,1-.372.254,5.49,5.49,0,0,0-5.483,5.483,1.172,1.172,0,1,0,2.344,0,3.143,3.143,0,0,1,3.14-3.14,2.735,2.735,0,0,0,2.585-1.825,3.108,3.108,0,0,1,2.932-2.081H34.309a8.759,8.759,0,0,1,8.749,8.749v6.339c-1.815.51-2.057,1.19-3.442,1.263V20.2a4.893,4.893,0,0,0-4.887-4.887h-.045c-2.007,0-2.826.835-5.214.835H29.01c-2.363,0-3.223-.835-5.214-.835h-.045A4.893,4.893,0,0,0,18.864,20.2v4.569a11.206,11.206,0,0,0-3.442-.712V21.75a1.172,1.172,0,1,0-2.344,0v2.828a3.513,3.513,0,0,0-1.269,2.708V29.9a3.532,3.532,0,0,0,3.318,3.522,13.2,13.2,0,0,0,4.442,8.667c.38.327.768.631,1.164.914v4.929a.93.93,0,0,1-.809.92h0c-3.432.445-9.7,1.421-13.145,2.954A11.4,11.4,0,0,0,.023,62.2V73.857a6.156,6.156,0,0,0,6.15,6.15H52.306a6.157,6.157,0,0,0,6.15-6.15V69.9a1.172,1.172,0,1,0-2.344,0v3.958a3.81,3.81,0,0,1-3.806,3.806H49.3v-6.39a1.172,1.172,0,1,0-2.344,0v6.39H34.77L32.607,61.679l1.1-1.541a3.308,3.308,0,0,0,3.042-.689l5.268-4.522a3.3,3.3,0,0,0,1.131-3,37.33,37.33,0,0,1,7.6,2.015A9.051,9.051,0,0,1,56.113,62.2v2.219a1.172,1.172,0,0,0,2.344,0V62.2A11.4,11.4,0,0,0,51.7,51.8c-3.441-1.532-9.713-2.508-13.145-2.954h0a.93.93,0,0,1-.809-.92V43c.4-.284.785-.588,1.164-.914a12.735,12.735,0,0,0,2.846-3.531l.506.506a4.6,4.6,0,0,0,6.506,0A1.891,1.891,0,0,1,52,40.4,4.605,4.605,0,0,0,56.6,45h1.84a4.605,4.605,0,0,0,4.6-4.6,1.891,1.891,0,0,1,3.233-1.339,4.6,4.6,0,0,0,6.506,0l1.3-1.3a4.606,4.606,0,0,0,0-6.506,1.891,1.891,0,0,1,1.331-3.233,4.531,4.531,0,0,0,4.609-4.526V21.505a4.532,4.532,0,0,0-4.609-4.526ZM30.78,60.205H27.7l-.9-1.262,2.438-1.755,2.438,1.755Zm-6.293-2.482a.99.99,0,0,1-1.227-.052l-5.268-4.522a.993.993,0,0,1,.488-1.733c.491-.072.941-.135,1.33-.187l7.33,4.584ZM2.366,73.857V62.2a9.051,9.051,0,0,1,5.364-8.261,37.329,37.329,0,0,1,7.6-2.015,3.3,3.3,0,0,0,1.131,3l5.268,4.522a3.307,3.307,0,0,0,3.042.689l1.1,1.541L23.709,77.663H11.527v-6.39a1.172,1.172,0,0,0-2.344,0v6.39H6.173A3.811,3.811,0,0,1,2.366,73.857Zm23.708,3.806,2.045-15.114H30.36L32.4,77.663ZM40.795,52.119a.978.978,0,0,1-.307,1.029L35.22,57.67a.99.99,0,0,1-1.227.052l-2.653-1.91,7.33-4.584c.389.052.839.115,1.331.187A.981.981,0,0,1,40.795,52.119Zm-4.624-2.092-6.931,4.335-6.932-4.335a3.259,3.259,0,0,0,.768-2.1V44.385a14.285,14.285,0,0,0,12.327,0v3.545A3.259,3.259,0,0,0,36.171,50.027Zm1.211-9.717a12.17,12.17,0,0,1-16.285,0,10.939,10.939,0,0,1-3.7-8.082,1.172,1.172,0,0,0-1.172-1.147h-.891A1.185,1.185,0,0,1,14.152,29.9V27.287a1.176,1.176,0,0,1,.44-.916c1.348.03,3.315.3,3.9.877a1.6,1.6,0,0,0,2.718-1.134V20.2a2.546,2.546,0,0,1,2.544-2.544c2.155.158,2.659.835,5.259.835h.459c2.69,0,3.707-.835,5.214-.835h.045A2.546,2.546,0,0,1,37.272,20.2v5.482a2.177,2.177,0,0,0,2.178,2.174c2.218,0,2.817-1.03,4.515-1.423a1.177,1.177,0,0,1,.362.85V29.9a1.185,1.185,0,0,1-1.184,1.184h-.891a1.172,1.172,0,0,0-1.172,1.147,10.939,10.939,0,0,1-3.7,8.082Zm40.3-16.815a2.212,2.212,0,0,1-2.274,2.182,4.237,4.237,0,0,0-2.979,7.234,2.259,2.259,0,0,1,0,3.191l-1.3,1.3a2.256,2.256,0,0,1-3.191,0,4.237,4.237,0,0,0-7.234,3,2.259,2.259,0,0,1-2.256,2.256H56.6A2.259,2.259,0,0,1,54.346,40.4a4.237,4.237,0,0,0-7.234-3,2.255,2.255,0,0,1-3.191,0l-1.165-1.165a13.75,13.75,0,0,0,.6-2.82A3.532,3.532,0,0,0,46.671,29.9V27.287A3.513,3.513,0,0,0,45.4,24.578V17.91a11.058,11.058,0,0,0-3.374-7.956A2.235,2.235,0,0,1,42.619,8.9l1.3-1.3a2.256,2.256,0,0,1,3.191,0,4.237,4.237,0,0,0,7.234-3A2.259,2.259,0,0,1,56.6,2.344h1.84A2.259,2.259,0,0,1,60.7,4.6a4.237,4.237,0,0,0,7.222,3.009,2.212,2.212,0,0,1,3.151-.065L72.426,8.9a2.256,2.256,0,0,1,0,3.191A4.237,4.237,0,0,0,75.4,19.324a2.212,2.212,0,0,1,2.274,2.182v1.989Z" transform="translate(-0.023 0)" fill="#0f4c75"/>
    </g>
  </g>
</svg>
