<svg xmlns="http://www.w3.org/2000/svg" width="15.276" height="15.276" viewBox="0 0 15.276 15.276">
  <path id="Path_40" data-name="Path 40" d="M7.638,1.358a23.42,23.42,0,0,1,3.055.085,3.936,3.936,0,0,1,1.443.255A2.981,2.981,0,0,1,13.579,3.14a3.936,3.936,0,0,1,.255,1.443c0,.764.085,1.018.085,3.055a23.42,23.42,0,0,1-.085,3.055,3.936,3.936,0,0,1-.255,1.443,2.981,2.981,0,0,1-1.443,1.443,3.936,3.936,0,0,1-1.443.255c-.764,0-1.018.085-3.055.085a23.42,23.42,0,0,1-3.055-.085,3.936,3.936,0,0,1-1.443-.255A2.981,2.981,0,0,1,1.7,12.136a3.936,3.936,0,0,1-.255-1.443c0-.764-.085-1.018-.085-3.055a23.42,23.42,0,0,1,.085-3.055A3.936,3.936,0,0,1,1.7,3.14a3.048,3.048,0,0,1,.594-.849A1.435,1.435,0,0,1,3.14,1.7a3.936,3.936,0,0,1,1.443-.255,23.42,23.42,0,0,1,3.055-.085M7.638,0A25.076,25.076,0,0,0,4.5.085,5.239,5.239,0,0,0,2.631.424a3.322,3.322,0,0,0-1.358.849A3.322,3.322,0,0,0,.424,2.631,3.867,3.867,0,0,0,.085,4.5,25.076,25.076,0,0,0,0,7.638a25.076,25.076,0,0,0,.085,3.14,5.239,5.239,0,0,0,.339,1.867A3.322,3.322,0,0,0,1.273,14a3.322,3.322,0,0,0,1.358.849,5.239,5.239,0,0,0,1.867.339,25.076,25.076,0,0,0,3.14.085,25.076,25.076,0,0,0,3.14-.085,5.239,5.239,0,0,0,1.867-.339,3.561,3.561,0,0,0,2.207-2.207,5.239,5.239,0,0,0,.339-1.867c0-.849.085-1.1.085-3.14a25.076,25.076,0,0,0-.085-3.14,5.239,5.239,0,0,0-.339-1.867A3.322,3.322,0,0,0,14,1.273,3.322,3.322,0,0,0,12.645.424,5.239,5.239,0,0,0,10.778.085,25.076,25.076,0,0,0,7.638,0m0,3.734a3.841,3.841,0,0,0-3.9,3.9,3.9,3.9,0,1,0,3.9-3.9m0,6.45A2.5,2.5,0,0,1,5.092,7.638,2.5,2.5,0,0,1,7.638,5.092a2.5,2.5,0,0,1,2.546,2.546,2.5,2.5,0,0,1-2.546,2.546m4.074-7.553a.934.934,0,1,0,.934.934.942.942,0,0,0-.934-.934" fill="#0f4c75" fill-rule="evenodd"/>
</svg>
