<svg xmlns="http://www.w3.org/2000/svg" width="15.276" height="12.391" viewBox="0 0 15.276 12.391">
  <path id="Path_39" data-name="Path 39" d="M42.837,14.391A8.832,8.832,0,0,0,51.749,5.48V5.055a6.9,6.9,0,0,0,1.528-1.612,7.045,7.045,0,0,1-1.782.509,3.3,3.3,0,0,0,1.358-1.7,7.784,7.784,0,0,1-1.952.764A3.031,3.031,0,0,0,48.609,2a3.189,3.189,0,0,0-3.14,3.14,1.655,1.655,0,0,0,.085.679,8.774,8.774,0,0,1-6.45-3.31,3.25,3.25,0,0,0-.424,1.612,3.372,3.372,0,0,0,1.358,2.631,2.861,2.861,0,0,1-1.443-.424h0A3.1,3.1,0,0,0,41.14,9.384a2.616,2.616,0,0,1-.849.085,1.444,1.444,0,0,1-.594-.085,3.215,3.215,0,0,0,2.97,2.207,6.408,6.408,0,0,1-3.9,1.358A2.35,2.35,0,0,1,38,12.863a8.011,8.011,0,0,0,4.837,1.528" transform="translate(-38 -2)" fill="#0f4c75" fill-rule="evenodd"/>
</svg>
