<svg xmlns="http://www.w3.org/2000/svg" width="65.195" height="65.333" viewBox="0 0 65.195 65.333">
  <g id="profit_1_" data-name="profit (1)" transform="translate(-1 -0.869)">
    <path id="Path_420" data-name="Path 420" d="M5.788,43.334a17.737,17.737,0,0,0,.883,2.237l1.9-.9a15.354,15.354,0,0,1-.778-1.97Z" transform="translate(0.247 2.156)" fill="#0f4c75"/>
    <path id="Path_421" data-name="Path 421" d="M11.686,27.785l-.737-.75-.775-.712A17.547,17.547,0,0,0,5,38.813a17.791,17.791,0,0,0,.277,3.128l2.07-.37A15.7,15.7,0,0,1,7.1,38.813a15.453,15.453,0,0,1,4.551-11Z" transform="translate(0.206 1.312)" fill="#0f4c75"/>
    <path id="Path_422" data-name="Path 422" d="M0,0H2.1V2.1H0Z" transform="translate(28.374 23.204) rotate(-45)" fill="#0f4c75"/>
    <path id="Path_423" data-name="Path 423" d="M0,0H2.1V2.1H0Z" transform="translate(31.347 26.177) rotate(-45)" fill="#0f4c75"/>
    <path id="Path_424" data-name="Path 424" d="M35.862,32.53l1.935-.823a17.488,17.488,0,0,0-1.007-2l-1.814,1.066A14.978,14.978,0,0,1,35.862,32.53Z" transform="translate(1.751 1.486)" fill="#0f4c75"/>
    <path id="Path_425" data-name="Path 425" d="M33.993,29.316l1.664-1.287a18.019,18.019,0,0,0-1.473-1.677l-1.491,1.483A16.289,16.289,0,0,1,33.993,29.316Z" transform="translate(1.633 1.313)" fill="#0f4c75"/>
    <path id="Path_426" data-name="Path 426" d="M23.258,43h-2.1v2.1a3.155,3.155,0,0,0,0,6.309h2.1a1.052,1.052,0,1,1,0,2.1H20.1V52.464H18v3.155h3.155v2.1h2.1v-2.1a3.155,3.155,0,1,0,0-6.309h-2.1a1.052,1.052,0,1,1,0-2.1h3.155v1.052h2.1V45.1H23.258Z" transform="translate(0.876 2.171)" fill="#0f4c75"/>
    <path id="Path_427" data-name="Path 427" d="M64.092,24.141c0,2.661-1.435,5.362-4.267,8.023a25.005,25.005,0,0,1-14.732,6.552,21.722,21.722,0,0,0-6.334-14.055l-7.88-7.881,5.874-5.874v-.435A4.631,4.631,0,0,0,32.7,5.882L30.764,5.64l1.009-3.281L25.814.869,23.132,4.444l-1.669-2.5L14.346,3.364l.77,2.31-1.654.207a4.631,4.631,0,0,0-4.049,4.589v.435l5.874,5.874-7.88,7.88a21.863,21.863,0,0,0,3.3,33.631A13.676,13.676,0,0,0,23.082,66.2H66.2V24.141ZM42.351,40.965c.947,0,1.885-.047,2.814-.136V64.1H40.958V40.965Zm4.917-.416a28.26,28.26,0,0,0,4.206-1.043V64.1H47.268ZM53.577,38.7a26.664,26.664,0,0,0,4.206-2.265V64.1H53.577ZM32.44,7.968a2.526,2.526,0,0,1,2.176,2.1l-5.659,5.66h-1.3L30.137,7.68ZM20.494,4.279l2.537,3.806,3.627-4.837,2.453.613L25.46,15.728H20.685L17.1,4.958Zm-6.77,3.689L15.8,7.709l2.673,8.019H17.208l-5.66-5.66a2.527,2.527,0,0,1,2.177-2.1ZM3.1,40.125a19.638,19.638,0,0,1,5.79-13.978l8.316-8.316H28.956l8.316,8.316A19.635,19.635,0,0,1,43,38.833c-.217.005-.428.029-.646.029H23.082A13.588,13.588,0,0,0,9.613,54.779,19.7,19.7,0,0,1,3.1,40.125Zm8.412,12.407A11.567,11.567,0,1,1,23.082,64.1,11.581,11.581,0,0,1,11.515,52.532Zm25.237,0a13.657,13.657,0,0,0-6.419-11.567h8.522V64.1H30.334A13.657,13.657,0,0,0,36.752,52.532ZM59.886,64.1V34.894c.471-.384.935-.779,1.38-1.2a19.523,19.523,0,0,0,2.827-3.276V64.1Z" transform="translate(0)" fill="#0f4c75"/>
    <path id="Path_428" data-name="Path 428" d="M55.191,6.611V18.794h2.1V6.611l2.411,2.411,1.487-1.487-4.95-4.95-4.95,4.95L52.78,9.022Z" transform="translate(2.592 0.088)" fill="#0f4c75"/>
    <path id="Path_429" data-name="Path 429" d="M46.191,13.611V25.794h2.1V13.611l2.411,2.411,1.487-1.487-4.95-4.95-4.95,4.95,1.487,1.487Z" transform="translate(2.128 0.449)" fill="#0f4c75"/>
  </g>
</svg>
