<svg xmlns="http://www.w3.org/2000/svg" width="104.684" height="86.333" viewBox="0 0 104.684 86.333">
  <g id="sales_icon" data-name="sales icon" transform="translate(-2976.002 -2223)">
    <g id="sales" transform="translate(2981.286 2223)">
      <path id="Path_399" data-name="Path 399" d="M153.227,318.976h-.051a2.3,2.3,0,0,1-2.269-2.293,1.212,1.212,0,1,0-2.424,0,4.728,4.728,0,0,0,3.507,4.56v1.033a1.212,1.212,0,0,0,2.424,0v-1.033a4.719,4.719,0,0,0-1.212-9.28,2.295,2.295,0,1,1,2.294-2.294,1.212,1.212,0,0,0,2.424,0,4.728,4.728,0,0,0-3.507-4.561v-.873a1.212,1.212,0,1,0-2.424,0v.873a4.719,4.719,0,0,0,1.212,9.28,2.294,2.294,0,1,1,.025,4.588Z" transform="translate(-120.504 -250.357)" fill="#0f4c75"/>
      <path id="Path_400" data-name="Path 400" d="M371.552,166.738H349.226a4.755,4.755,0,0,0-4.749,4.75v.276a4.738,4.738,0,0,0,1.582,3.536,4.737,4.737,0,0,0-1.582,3.536v.276a4.738,4.738,0,0,0,1.582,3.536,4.738,4.738,0,0,0-1.582,3.536v.276a4.738,4.738,0,0,0,1.582,3.536,4.738,4.738,0,0,0-1.582,3.536v.275a4.737,4.737,0,0,0,1.582,3.536,4.738,4.738,0,0,0-1.582,3.536v.276a4.737,4.737,0,0,0,1.582,3.536,4.737,4.737,0,0,0-1.582,3.536v.276a4.738,4.738,0,0,0,1.582,3.536,4.737,4.737,0,0,0-1.582,3.536v.276a4.737,4.737,0,0,0,1.582,3.536,4.738,4.738,0,0,0-1.582,3.536v.276a4.755,4.755,0,0,0,4.749,4.75h22.326a4.755,4.755,0,0,0,4.749-4.75v-.276a4.739,4.739,0,0,0-1.583-3.536,4.737,4.737,0,0,0,1.583-3.535v-.276a4.738,4.738,0,0,0-1.582-3.536A4.739,4.739,0,0,0,376.3,208.5v-.276a4.737,4.737,0,0,0-1.583-3.536,4.738,4.738,0,0,0,1.583-3.536v-.275a4.739,4.739,0,0,0-1.583-3.536A4.738,4.738,0,0,0,376.3,193.8v-.276a4.738,4.738,0,0,0-1.582-3.536,4.738,4.738,0,0,0,1.582-3.536v-.276a4.738,4.738,0,0,0-1.582-3.536,4.738,4.738,0,0,0,1.582-3.536v-.275a4.738,4.738,0,0,0-1.582-3.536,4.739,4.739,0,0,0,1.582-3.536v-.276a4.755,4.755,0,0,0-4.749-4.749Zm2.325,56.451a2.328,2.328,0,0,1-2.325,2.325H349.226a2.328,2.328,0,0,1-2.325-2.325v-.276a2.326,2.326,0,0,1,2.281-2.323H371.6a2.327,2.327,0,0,1,2.281,2.323Zm0-7.346a2.327,2.327,0,0,1-2.281,2.323H349.182a2.326,2.326,0,0,1-2.281-2.323v-.276a2.326,2.326,0,0,1,2.278-2.323H371.6a2.327,2.327,0,0,1,2.278,2.323Zm0-7.347a2.327,2.327,0,0,1-2.278,2.323H349.18A2.327,2.327,0,0,1,346.9,208.5v-.276a2.326,2.326,0,0,1,2.281-2.323H371.6a2.326,2.326,0,0,1,2.281,2.323Zm0-7.347a2.327,2.327,0,0,1-2.281,2.323H349.182a2.326,2.326,0,0,1-2.281-2.323v-.276a2.327,2.327,0,0,1,2.278-2.323H371.6a2.327,2.327,0,0,1,2.278,2.323Zm0-7.346a2.326,2.326,0,0,1-2.278,2.323H349.18A2.326,2.326,0,0,1,346.9,193.8v-.276a2.326,2.326,0,0,1,2.278-2.323H371.6a2.327,2.327,0,0,1,2.278,2.323Zm0-7.347a2.327,2.327,0,0,1-2.278,2.323H349.18a2.327,2.327,0,0,1-2.278-2.323v-.276a2.326,2.326,0,0,1,2.278-2.323H371.6a2.327,2.327,0,0,1,2.278,2.323Zm0-7.346a2.327,2.327,0,0,1-2.278,2.323H349.18a2.326,2.326,0,0,1-2.278-2.323v-.276a2.326,2.326,0,0,1,2.28-2.323H371.6a2.326,2.326,0,0,1,2.28,2.323Zm0-7.347a2.327,2.327,0,0,1-2.28,2.323H349.181a2.327,2.327,0,0,1-2.28-2.323v-.276a2.328,2.328,0,0,1,2.325-2.325h22.326a2.328,2.328,0,0,1,2.325,2.325Z" transform="translate(-276.902 -141.606)" fill="#0f4c75"/>
      <path id="Path_401" data-name="Path 401" d="M90.708,56.692a1.212,1.212,0,0,0-1.633-.2L53.762,81.85a1.212,1.212,0,0,0,1.414,1.969l34.4-24.707,11.4,13.492a1.212,1.212,0,0,0,1.666.178L131.021,50.9l3.868,4.448a1.212,1.212,0,0,0,2.124-.711l.717-10.283a1.212,1.212,0,0,0-1.125-1.293l-10.283-.717a1.212,1.212,0,0,0-1,2l4.1,4.72L102.082,70.155Zm38.364-11.729,6.155.429-.429,6.155Z" transform="translate(-44.517 -42.339)" fill="#0f4c75"/>
      <path id="Path_402" data-name="Path 402" d="M14.748,285.09H37.074a4.755,4.755,0,0,0,4.749-4.749v-.276a4.739,4.739,0,0,0-1.582-3.536,4.89,4.89,0,0,0,.929-1.162,13.332,13.332,0,0,0,3.049,0,4.864,4.864,0,0,0,1.033,1.258,4.74,4.74,0,0,0-1.683,3.623v.276a4.755,4.755,0,0,0,4.749,4.75H70.644a4.755,4.755,0,0,0,4.749-4.75v-.276a4.74,4.74,0,0,0-1.691-3.629,4.877,4.877,0,0,0,.01-7.375,4.877,4.877,0,0,0,0-7.367,4.877,4.877,0,0,0,0-7.367,4.878,4.878,0,0,0,.053-7.321,4.738,4.738,0,0,0,1.628-3.575v-.275a4.755,4.755,0,0,0-4.749-4.75H48.318a4.755,4.755,0,0,0-4.749,4.75v.276A4.738,4.738,0,0,0,45.2,247.19a4.907,4.907,0,0,0-.932,1.128,13.59,13.59,0,0,0-15.131,12.356H14.886a4.884,4.884,0,0,0-3.206,8.571,4.878,4.878,0,0,0-.1,7.283A4.738,4.738,0,0,0,10,280.066v.276a4.755,4.755,0,0,0,4.749,4.749Zm58.221-4.566a2.328,2.328,0,0,1-2.325,2.325H48.318a2.328,2.328,0,0,1-2.325-2.325v-.276a2.328,2.328,0,0,1,2.325-2.325H70.644a2.327,2.327,0,0,1,2.325,2.325Zm-2.463-5.134H48.456a2.457,2.457,0,0,1-1.6-.587,13.661,13.661,0,0,0,6.367-4.338H70.507a2.463,2.463,0,1,1,0,4.926Zm0-7.367H54.82a13.5,13.5,0,0,0,1.431-4.926H70.507a2.463,2.463,0,1,1,0,4.926Zm0-7.367H56.257a13.505,13.505,0,0,0-1.4-4.926H70.507a2.463,2.463,0,0,1,0,4.926Zm0-7.367H53.281a13.661,13.661,0,0,0-6.358-4.39,2.46,2.46,0,0,1,1.532-.536H70.507a2.463,2.463,0,1,1,0,4.926Zm-24.513-9.95a2.328,2.328,0,0,1,2.325-2.325H70.644a2.327,2.327,0,0,1,2.325,2.325v.276a2.328,2.328,0,0,1-2.325,2.325H48.318a2.328,2.328,0,0,1-2.325-2.325Zm-3.3,7.31A11.191,11.191,0,1,1,31.5,261.841,11.191,11.191,0,0,1,42.7,250.649ZM14.886,263.1H29.141a13.5,13.5,0,0,0,1.431,4.926H14.886a2.463,2.463,0,1,1,0-4.926Zm0,7.367H32.17a13.658,13.658,0,0,0,6.362,4.336,2.451,2.451,0,0,1-1.069.531H14.36a2.462,2.462,0,0,1,.525-4.868Zm-2.463,9.6a2.328,2.328,0,0,1,1.9-2.284H37.494a2.327,2.327,0,0,1,1.9,2.285v.276a2.327,2.327,0,0,1-2.325,2.325H14.748a2.328,2.328,0,0,1-2.325-2.325Z" transform="translate(-9.998 -198.941)" fill="#0f4c75"/>
    </g>
    <g id="clock_1_" data-name="clock (1)" transform="translate(2976.002 2223)">
      <path id="Path_403" data-name="Path 403" d="M34.189,5.866A20.028,20.028,0,0,0,5.866,34.189,20.028,20.028,0,0,0,34.189,5.866ZM33.3,33.3A18.776,18.776,0,0,1,6.751,6.751,18.776,18.776,0,0,1,33.3,33.3Z" fill="#0f4c75"/>
      <path id="Path_404" data-name="Path 404" d="M33.252,49.524A16.275,16.275,0,0,1,58.564,35.992a.626.626,0,0,0,.7-1.04,17.525,17.525,0,0,0-22.8,26.255.626.626,0,0,0,.933-.835A16.245,16.245,0,0,1,33.252,49.524Z" transform="translate(-29.497 -29.497)" fill="#0f4c75"/>
      <path id="Path_405" data-name="Path 405" d="M137.829,128.274a.626.626,0,1,0-1.04.7,16.274,16.274,0,0,1-23.779,21.682.626.626,0,1,0-.789.972,17.526,17.526,0,0,0,25.608-23.351Z" transform="translate(-103.228 -117.982)" fill="#0f4c75"/>
      <path id="Path_406" data-name="Path 406" d="M392.2,88.086a16.413,16.413,0,0,1,1.206,1.2.626.626,0,0,0,.927-.841,17.7,17.7,0,0,0-1.3-1.289.626.626,0,1,0-.835.933Z" transform="translate(-361.326 -80.188)" fill="#0f4c75"/>
      <path id="Path_407" data-name="Path 407" d="M248.626,67.129a.626.626,0,0,0,.626-.626V64.626a.626.626,0,1,0-1.252,0V66.5A.626.626,0,0,0,248.626,67.129Z" transform="translate(-228.598 -58.993)" fill="#0f4c75"/>
      <path id="Path_408" data-name="Path 408" d="M248,408.626V410.5a.626.626,0,0,0,1.252,0v-1.878a.626.626,0,0,0-1.252,0Z" transform="translate(-228.598 -376.081)" fill="#0f4c75"/>
      <path id="Path_409" data-name="Path 409" d="M67.129,248.626A.626.626,0,0,0,66.5,248H64.626a.626.626,0,1,0,0,1.252H66.5A.626.626,0,0,0,67.129,248.626Z" transform="translate(-58.993 -228.598)" fill="#0f4c75"/>
      <path id="Path_410" data-name="Path 410" d="M408,248.626a.626.626,0,0,0,.626.626H410.5a.626.626,0,0,0,0-1.252h-1.878A.626.626,0,0,0,408,248.626Z" transform="translate(-376.081 -228.598)" fill="#0f4c75"/>
      <path id="Path_411" data-name="Path 411" d="M158.106,90.589l-.939-1.626a.626.626,0,1,0-1.084.626l.939,1.626a.626.626,0,1,0,1.084-.626Z" transform="translate(-143.795 -81.715)" fill="#0f4c75"/>
      <path id="Path_412" data-name="Path 412" d="M329.167,386.877a.626.626,0,1,0-1.084.626l.939,1.626a.626.626,0,1,0,1.084-.626Z" transform="translate(-302.339 -356.322)" fill="#0f4c75"/>
      <path id="Path_413" data-name="Path 413" d="M89.277,330.19a.623.623,0,0,0,.312-.084l1.626-.939a.626.626,0,0,0-.626-1.084l-1.626.939a.626.626,0,0,0,.313,1.168Z" transform="translate(-81.716 -302.339)" fill="#0f4c75"/>
      <path id="Path_414" data-name="Path 414" d="M387.19,158.19a.623.623,0,0,0,.312-.084l1.626-.939a.626.626,0,0,0-.626-1.084l-1.626.939a.626.626,0,0,0,.314,1.168Z" transform="translate(-356.321 -143.796)" fill="#0f4c75"/>
      <path id="Path_415" data-name="Path 415" d="M329.877,88.733a.626.626,0,0,0-.855.229l-.939,1.626a.626.626,0,1,0,1.084.626l.939-1.626A.626.626,0,0,0,329.877,88.733Z" transform="translate(-302.339 -81.714)" fill="#0f4c75"/>
      <path id="Path_416" data-name="Path 416" d="M157.877,386.647a.626.626,0,0,0-.855.229l-.939,1.626a.626.626,0,1,0,1.084.626l.939-1.626A.626.626,0,0,0,157.877,386.647Z" transform="translate(-143.795 -356.321)" fill="#0f4c75"/>
      <path id="Path_417" data-name="Path 417" d="M386.876,329.167l1.626.939a.626.626,0,0,0,.626-1.084l-1.626-.939a.626.626,0,0,0-.626,1.084Z" transform="translate(-356.321 -302.338)" fill="#0f4c75"/>
      <path id="Path_418" data-name="Path 418" d="M91.215,157.021l-1.626-.939a.626.626,0,1,0-.626,1.084l1.626.939a.626.626,0,1,0,.626-1.084Z" transform="translate(-81.715 -143.794)" fill="#0f4c75"/>
      <path id="Path_419" data-name="Path 419" d="M238.235,138.811a.626.626,0,0,0,.541-.939l-3.472-6.014a1.875,1.875,0,0,0-.8-2.989v-8.244a.626.626,0,1,0-1.252,0v8.244a1.877,1.877,0,0,0,.969,3.616l3.471,6.013A.626.626,0,0,0,238.235,138.811Zm-4.983-8.172a.626.626,0,1,1,.626.626A.627.627,0,0,1,233.252,130.64Z" transform="translate(-213.85 -110.612)" fill="#0f4c75"/>
    </g>
  </g>
</svg>
